<svg width="843" height="925" viewBox="0 0 843 925" fill="none" xmlns="http://www.w3.org/2000/svg">
<g clip-path="url(#clip0_112_576)">
<rect width="843" height="925" fill="#D6D6D6"/>
<path d="M1374 546.135C1309.87 508.509 1218.69 485 1117.52 485C1060.45 485 1006.56 492.48 958.911 505.754C909.586 519.495 856.436 519.495 807.111 505.754C759.461 492.48 705.572 485 648.505 485C591.44 485 537.55 492.48 489.901 505.754C440.575 519.495 387.425 519.495 338.1 505.754C290.45 492.48 236.561 485 179.495 485C122.429 485 68.5388 492.48 20.8895 505.754C-28.4359 519.495 -81.5859 519.495 -130.911 505.754C-178.561 492.48 -232.45 485 -289.516 485C-390.685 485 -481.871 508.509 -546 546.135V1072H1374V546.135Z" fill="#CBF3FF"/>
<path d="M563.117 588.18C563.116 581.063 562.265 573.971 560.581 567.055C560.546 566.913 560.457 566.792 560.333 566.716C560.209 566.64 560.059 566.617 559.918 566.651C559.777 566.686 559.655 566.775 559.579 566.899C559.503 567.024 559.48 567.173 559.514 567.314C561.19 574.143 562.032 581.149 562.022 588.18C562.022 621.209 540.291 660.52 507.839 666.832C506.742 661.412 504.407 656.319 501.018 651.95C497.628 647.581 493.276 644.053 488.299 641.642L387.6 592.647C386.94 582.13 388.39 571.586 391.865 561.637C391.913 561.503 391.906 561.356 391.847 561.227C391.788 561.098 391.681 560.997 391.548 560.945C391.48 560.917 391.408 560.903 391.334 560.904C391.261 560.905 391.188 560.921 391.121 560.951C391.054 560.98 390.993 561.023 390.943 561.077C390.893 561.13 390.853 561.193 390.828 561.262C387.368 571.185 385.908 581.696 386.534 592.186L262.173 531.865C253.579 527.71 243.688 527.131 234.667 530.253C225.646 533.375 218.23 539.945 214.043 548.523L205.915 565.297L196.318 560.686C193.184 559.166 189.575 558.954 186.284 560.094C182.993 561.234 180.289 563.634 178.767 566.767L150.349 625.272C148.83 628.407 148.618 632.016 149.758 635.307C150.898 638.598 153.298 641.301 156.431 642.824L466.539 793.469C468.089 794.224 469.772 794.666 471.492 794.769C473.213 794.872 474.936 794.635 476.565 794.07C478.193 793.505 479.693 792.623 480.98 791.477C482.267 790.33 483.314 788.94 484.062 787.388L512.508 728.882C514.018 725.751 514.226 722.149 513.086 718.865C511.947 715.581 509.552 712.882 506.427 711.359L496.801 706.661L504.957 689.888C508.268 683.104 509.347 675.447 508.041 668.013C541.012 661.557 563.117 621.641 563.117 588.18ZM156.892 641.729C154.022 640.325 151.826 637.842 150.783 634.822C149.741 631.803 149.937 628.493 151.329 625.618L179.746 567.113C180.438 565.685 181.405 564.409 182.592 563.356C183.779 562.304 185.161 561.496 186.661 560.979C188.16 560.462 189.747 560.247 191.33 560.345C192.913 560.443 194.462 560.852 195.886 561.55L216.06 571.378C217.483 572.067 218.755 573.03 219.805 574.212C220.855 575.394 221.661 576.771 222.178 578.265C222.694 579.759 222.911 581.34 222.816 582.918C222.721 584.495 222.315 586.039 221.623 587.46L193.206 645.965C191.813 648.838 189.337 651.04 186.322 652.089C183.306 653.137 179.998 652.946 177.124 651.557L156.892 641.729ZM181.85 653.833C184.401 653.938 186.928 653.296 189.119 651.985C191.31 650.674 193.071 648.753 194.185 646.455L214.36 604.752L460.401 724.271L440.226 765.974C439.087 768.292 438.654 770.894 438.982 773.457C439.31 776.019 440.384 778.428 442.071 780.384L181.85 653.833ZM505.937 712.224C507.362 712.911 508.638 713.872 509.69 715.052C510.743 716.233 511.552 717.61 512.072 719.104C512.591 720.598 512.811 722.18 512.717 723.759C512.624 725.338 512.22 726.883 511.528 728.306L483.082 786.811C482.393 788.234 481.43 789.506 480.248 790.556C479.067 791.606 477.689 792.412 476.195 792.929C474.702 793.446 473.121 793.662 471.543 793.567C469.965 793.472 468.421 793.066 467.001 792.374L446.826 782.546C443.959 781.148 441.763 778.67 440.72 775.655C439.677 772.64 439.873 769.335 441.264 766.464L469.681 707.958C470.373 706.535 471.339 705.262 472.523 704.212C473.708 703.162 475.087 702.355 476.584 701.839C478.08 701.322 479.663 701.105 481.243 701.201C482.823 701.297 484.369 701.703 485.792 702.396L505.937 712.224ZM503.977 689.167L495.821 705.941L486.195 701.272C484.646 700.515 482.962 700.071 481.241 699.966C479.519 699.86 477.794 700.095 476.164 700.657C474.533 701.22 473.03 702.098 471.74 703.242C470.449 704.386 469.397 705.773 468.643 707.324L461.035 723.291L214.936 603.916L222.603 588.094C224.124 584.963 224.341 581.357 223.206 578.066C222.071 574.776 219.678 572.07 216.55 570.542L206.924 565.873L215.052 549.1C219.109 540.774 226.302 534.396 235.054 531.365C243.806 528.335 253.403 528.898 261.741 532.931L487.809 642.766C496.109 646.813 502.469 653.98 505.498 662.702C508.528 671.425 507.981 680.991 503.977 689.312V689.167Z" fill="#001344"/>
<path d="M420.686 424.681C435.096 416.035 435.615 412.058 432.762 413.153C428.381 414.623 425.211 415.459 422.242 416.208C434.779 404.305 433.223 400.328 430.888 402.23C426.738 405.458 422.242 408.945 418.524 411.77C431.205 396.841 430.225 390.356 428.064 392.777C424.634 396.61 419.245 402.922 415.066 407.36C424.202 392.719 420.83 393.209 417.17 397.648C412.875 402.864 403.739 413.557 403.249 414.652C402.819 415.872 402.538 417.14 402.414 418.427C393.998 409.176 392.038 411.885 393.998 414.623C397.299 419.384 399.828 424.636 401.491 430.186C401.475 433.745 401.137 437.294 400.483 440.792C400.05 441.686 398.177 445.173 395.727 449.438C401.164 454.347 408.034 457.379 415.325 458.084C416.449 455.029 417.458 452.147 418.207 449.64C421.32 440.216 422.012 438.112 420.455 432.549C419.187 428.313 417.977 426.267 420.686 424.681Z" fill="#FFD0C7"/>
<path d="M386.101 412.98C386.101 412.98 381.26 393.325 381.807 383.67C382.412 372.92 379.501 376.522 378.147 380.183C376.792 383.843 374.371 394.132 371.691 390.327C370.625 387.878 369.702 386.091 368.953 384.563C366.607 377.742 364.682 370.783 363.189 363.726C361.95 357.53 360.509 358.51 360.307 359.489C359.673 363.115 359.547 366.81 359.932 370.47C352.871 361.536 349.067 361.075 354.168 371.104C360.855 384.39 366.417 400.155 365.696 414.969C372.54 416.427 379.668 415.732 386.101 412.98Z" fill="#FFD0C7"/>
<path d="M288.803 464.079L298.573 471.342L287.045 473.388C283.01 455.145 282.059 455.433 280.33 448.285C273.413 446.815 275.575 438.659 280.33 441.253C282.636 442.464 283.471 442.319 283.443 440.85C284.106 428.716 293.213 424.912 299.957 436.872C306.701 448.833 310.505 472.466 288.803 464.079Z" fill="#FFD0C7"/>
<path d="M651.683 715.942C651.883 715.48 651.991 714.983 652 714.48C652.008 713.976 651.918 713.476 651.733 713.008C651.548 712.54 651.273 712.112 650.923 711.75C650.574 711.388 650.156 711.099 649.694 710.898L619.894 697.756C613.619 695.015 608.636 689.971 605.973 683.663C605.973 683.346 594.186 655.822 594.906 657.551C594.608 656.87 594.057 656.33 593.369 656.045C592.681 655.76 591.91 655.753 591.217 656.024L568.852 664.929C568.502 665.074 568.183 665.287 567.915 665.556C567.647 665.824 567.435 666.143 567.29 666.494C567.146 666.845 567.072 667.22 567.073 667.6C567.074 667.979 567.15 668.355 567.296 668.705C568.852 672.48 561.532 655.073 582.658 705.422C584.383 709.533 586.956 713.234 590.209 716.284C593.462 719.333 597.321 721.662 601.535 723.118L620.297 729.574C626.267 731.663 632.803 731.433 638.611 728.93C644.419 726.426 649.074 721.832 651.654 716.057C651.654 716.057 651.683 715.999 651.683 715.942ZM569.256 665.938L591.621 657.004C592.053 656.833 592.535 656.84 592.961 657.024C593.388 657.208 593.724 657.553 593.898 657.984L602.227 677.61L576.519 687.957L568.276 668.272C568.187 668.055 568.141 667.822 568.142 667.587C568.143 667.351 568.19 667.119 568.281 666.902C568.372 666.685 568.505 666.488 568.673 666.323C568.84 666.157 569.038 666.027 569.256 665.938ZM620.672 728.565L601.881 722.08C597.814 720.68 594.089 718.437 590.95 715.496C587.811 712.556 585.329 708.985 583.666 705.019L576.951 688.966L602.659 678.619L604.965 684.066C607.714 690.627 612.87 695.886 619.375 698.765L649.204 711.907C649.851 712.225 650.355 712.775 650.617 713.448C650.878 714.12 650.878 714.866 650.616 715.538C648.162 721.064 643.724 725.467 638.179 727.879C632.635 730.291 626.388 730.536 620.672 728.565Z" fill="#001344"/>
<path d="M397.774 543.912C397.705 544.571 397.395 545.182 396.902 545.625C396.41 546.069 395.771 546.315 395.108 546.315C394.445 546.315 393.806 546.069 393.313 545.625C392.821 545.182 392.511 544.571 392.442 543.912C392.511 543.253 392.821 542.642 393.313 542.199C393.806 541.755 394.445 541.509 395.108 541.509C395.771 541.509 396.41 541.755 396.902 542.199C397.395 542.642 397.705 543.253 397.774 543.912Z" fill="#001344"/>
<path d="M437.805 514.313C437.737 514.973 437.426 515.583 436.934 516.027C436.442 516.47 435.802 516.716 435.14 516.716C434.477 516.716 433.837 516.47 433.345 516.027C432.853 515.583 432.542 514.973 432.474 514.313C432.542 513.654 432.853 513.044 433.345 512.6C433.837 512.156 434.477 511.911 435.14 511.911C435.802 511.911 436.442 512.156 436.934 512.6C437.426 513.044 437.737 513.654 437.805 514.313Z" fill="#001344"/>
<path d="M485.619 531.202C485.55 531.861 485.24 532.472 484.747 532.915C484.255 533.359 483.616 533.605 482.953 533.605C482.29 533.605 481.651 533.359 481.158 532.915C480.666 532.472 480.356 531.861 480.287 531.202C480.356 530.543 480.666 529.932 481.158 529.489C481.651 529.045 482.29 528.799 482.953 528.799C483.616 528.799 484.255 529.045 484.747 529.489C485.24 529.932 485.55 530.543 485.619 531.202Z" fill="#001344"/>
<path d="M536.343 516.994C536.274 517.653 535.964 518.263 535.471 518.707C534.979 519.151 534.34 519.396 533.677 519.396C533.014 519.396 532.375 519.151 531.882 518.707C531.39 518.263 531.08 517.653 531.011 516.994C531.08 516.334 531.39 515.724 531.882 515.28C532.375 514.837 533.014 514.591 533.677 514.591C534.34 514.591 534.979 514.837 535.471 515.28C535.964 515.724 536.274 516.334 536.343 516.994Z" fill="#001344"/>
<path d="M564.616 556.334C564.616 557.045 564.333 557.726 563.831 558.229C563.328 558.732 562.646 559.014 561.935 559.014C561.225 559.014 560.543 558.732 560.04 558.229C559.537 557.726 559.255 557.045 559.255 556.334C559.255 555.623 559.537 554.941 560.04 554.438C560.543 553.936 561.225 553.653 561.935 553.653C562.646 553.653 563.328 553.936 563.831 554.438C564.333 554.941 564.616 555.623 564.616 556.334Z" fill="#001344"/>
<path d="M426.738 487.827C426.738 488.538 426.456 489.22 425.953 489.723C425.451 490.225 424.769 490.508 424.058 490.508C423.347 490.508 422.665 490.225 422.163 489.723C421.66 489.22 421.378 488.538 421.378 487.827C421.378 487.116 421.66 486.435 422.163 485.932C422.665 485.429 423.347 485.147 424.058 485.147C424.769 485.147 425.451 485.429 425.953 485.932C426.456 486.435 426.738 487.116 426.738 487.827Z" fill="#001344"/>
<path d="M475.445 476.414C475.376 477.073 475.066 477.684 474.574 478.128C474.081 478.571 473.442 478.817 472.779 478.817C472.116 478.817 471.477 478.571 470.985 478.128C470.492 477.684 470.182 477.073 470.113 476.414C470.182 475.755 470.492 475.144 470.985 474.701C471.477 474.257 472.116 474.011 472.779 474.011C473.442 474.011 474.081 474.257 474.574 474.701C475.066 475.144 475.376 475.755 475.445 476.414Z" fill="#001344"/>
<path d="M485.619 432.232C485.55 432.892 485.24 433.502 484.747 433.946C484.255 434.39 483.616 434.635 482.953 434.635C482.29 434.635 481.651 434.39 481.158 433.946C480.666 433.502 480.356 432.892 480.287 432.232C480.356 431.573 480.666 430.963 481.158 430.519C481.651 430.075 482.29 429.83 482.953 429.83C483.616 429.83 484.255 430.075 484.747 430.519C485.24 430.963 485.55 431.573 485.619 432.232Z" fill="#001344"/>
<path d="M536.343 418.456C536.274 419.115 535.964 419.726 535.471 420.17C534.979 420.613 534.34 420.859 533.677 420.859C533.014 420.859 532.375 420.613 531.882 420.17C531.39 419.726 531.08 419.115 531.011 418.456C531.08 417.797 531.39 417.186 531.882 416.743C532.375 416.299 533.014 416.053 533.677 416.053C534.34 416.053 534.979 416.299 535.471 416.743C535.964 417.186 536.274 417.797 536.343 418.456Z" fill="#001344"/>
<path d="M548.937 371.594C548.937 372.305 548.655 372.986 548.152 373.489C547.65 373.992 546.968 374.274 546.257 374.274C545.546 374.274 544.864 373.992 544.362 373.489C543.859 372.986 543.577 372.305 543.577 371.594C543.577 370.883 543.859 370.201 544.362 369.699C544.864 369.196 545.546 368.914 546.257 368.914C546.968 368.914 547.65 369.196 548.152 369.699C548.655 370.201 548.937 370.883 548.937 371.594Z" fill="#001344"/>
<path d="M615.484 437.449L602.054 439.553L599.921 426.094C599.921 426.014 599.904 425.936 599.871 425.863C599.838 425.791 599.789 425.727 599.729 425.675C599.669 425.623 599.598 425.586 599.521 425.564C599.444 425.543 599.364 425.538 599.286 425.551C599.207 425.564 599.132 425.593 599.066 425.638C599.001 425.682 598.945 425.741 598.904 425.809C598.863 425.877 598.837 425.953 598.829 426.032C598.82 426.111 598.829 426.191 598.854 426.267L600.958 439.726L587.499 441.83C587.42 441.829 587.341 441.846 587.269 441.88C587.196 441.913 587.132 441.961 587.081 442.022C587.029 442.082 586.991 442.153 586.97 442.23C586.948 442.306 586.944 442.387 586.956 442.465C586.969 442.544 586.999 442.618 587.043 442.684C587.088 442.75 587.146 442.805 587.214 442.846C587.282 442.887 587.359 442.913 587.438 442.922C587.517 442.93 587.597 442.922 587.672 442.896L601.131 440.792L603.235 454.251C603.247 454.323 603.272 454.392 603.31 454.454C603.348 454.517 603.398 454.571 603.457 454.613C603.516 454.656 603.582 454.687 603.653 454.704C603.724 454.721 603.797 454.724 603.869 454.713C603.941 454.701 604.01 454.676 604.072 454.638C604.134 454.6 604.188 454.55 604.231 454.491C604.274 454.432 604.305 454.365 604.322 454.295C604.339 454.224 604.342 454.15 604.33 454.079L602.255 440.619L615.714 438.515C615.79 438.506 615.862 438.481 615.927 438.442C615.993 438.403 616.049 438.351 616.093 438.289C616.137 438.227 616.167 438.156 616.182 438.082C616.198 438.007 616.197 437.931 616.181 437.856C616.165 437.782 616.134 437.712 616.089 437.651C616.045 437.589 615.988 437.538 615.922 437.499C615.857 437.461 615.784 437.437 615.708 437.428C615.633 437.419 615.556 437.427 615.484 437.449Z" fill="#001344"/>
<path d="M254.766 307.065C254.809 302.652 253.632 298.314 251.365 294.528C248.805 290.701 245.192 287.698 240.961 285.882C240.882 285.85 240.796 285.837 240.711 285.844C240.626 285.852 240.543 285.879 240.47 285.924C240.398 285.968 240.336 286.03 240.291 286.103C240.246 286.175 240.219 286.258 240.212 286.343C240.105 290.931 241.294 295.456 243.641 299.399C245.83 302.665 248.803 305.33 252.288 307.151C247.503 307.484 243.034 309.661 239.824 313.224C236.614 316.787 234.912 321.458 235.079 326.251C235.245 331.044 237.266 335.586 240.716 338.918C244.165 342.25 248.774 344.112 253.57 344.112C258.366 344.112 262.975 342.25 266.425 338.918C269.874 335.586 271.895 331.044 272.062 326.251C272.228 321.458 270.527 316.787 267.316 313.224C264.106 309.661 259.637 307.484 254.853 307.151L254.766 307.065ZM241.307 287.236C245.053 288.911 248.224 291.651 250.422 295.116C252.621 298.581 253.751 302.616 253.671 306.719C249.929 305.046 246.762 302.31 244.564 298.851C242.365 295.392 241.233 291.363 241.307 287.265V287.236ZM254.247 343.09C250.793 343.09 247.416 342.066 244.544 340.147C241.672 338.228 239.434 335.5 238.112 332.309C236.79 329.118 236.444 325.606 237.118 322.218C237.792 318.83 239.455 315.718 241.898 313.275C244.34 310.833 247.452 309.169 250.84 308.496C254.228 307.822 257.74 308.168 260.931 309.489C264.122 310.811 266.85 313.05 268.769 315.922C270.688 318.794 271.713 322.171 271.713 325.625C271.713 330.26 269.874 334.705 266.599 337.985C263.324 341.265 258.882 343.112 254.247 343.119V343.09Z" fill="#001344"/>
<path d="M645.861 566.45C645.861 565.066 643.238 562.732 625.686 556.016C615.513 552.155 597.759 543.595 588.566 539.012C589.097 536.285 589.406 533.519 589.488 530.741C589.484 530.642 589.455 530.545 589.405 530.46C589.355 530.375 589.284 530.303 589.2 530.251C559.627 514.474 528.409 501.997 496.109 493.044C489.447 491.165 482.458 490.743 475.618 491.804C511.804 459.146 546.153 424.509 578.507 388.05C578.569 387.956 578.602 387.846 578.602 387.733C578.602 387.621 578.569 387.511 578.507 387.416C576.807 384.534 575.049 381.652 573.204 379.174C579.372 370.729 589.488 363.063 591.188 357.414C592.047 354.38 592.292 351.206 591.909 348.076C590.67 334.934 602.342 308.708 594.359 307.728C592.975 307.728 590.151 309.543 579.948 325.222C574.732 333.263 562.656 348.999 553.549 360.181C550.357 358.176 546.967 356.506 543.433 355.195C543.343 355.136 543.238 355.104 543.13 355.104C543.022 355.104 542.917 355.136 542.827 355.195C501.401 402.094 456.517 445.822 408.553 486.011C412.242 478.432 416.421 468.719 421.666 456.297C421.666 456.009 424.26 453.415 418.784 448.429C421.983 438.688 422.242 437.276 420.11 430.301C419.13 427.045 418.899 425.978 420.686 424.883C437.777 414.681 435.096 411.309 432.214 412.26C428.756 413.413 426.047 414.191 423.568 414.825C436.393 402.317 432.647 399.377 429.995 401.423L421.349 408.282C432.618 393.872 429.505 389.491 427.113 392.028L417.746 402.662C419.073 400.562 420.138 398.307 420.917 395.947C421.407 394.016 420.138 393.555 418.813 394.42C416.215 396.695 413.893 399.268 411.896 402.086C406.132 408.801 402.558 413.268 402.183 414.075C401.854 415.01 401.622 415.976 401.492 416.957C397.14 412.317 394.027 410.386 392.673 411.482C391.952 412.087 392.067 413.355 393.018 414.652C396.267 419.344 398.756 424.518 400.396 429.984C400.322 433.342 400.033 436.692 399.532 440.014C398.244 439.726 396.906 439.76 395.634 440.111C394.362 440.463 393.197 441.123 392.24 442.031L390.367 408.455C390.194 408.167 390.943 404.997 384.401 403.037C382.922 396.608 382.149 390.036 382.095 383.439C382.47 376.955 381.519 375.917 380.683 375.744C379.156 375.427 377.801 378.626 377.398 379.721C376.36 382.603 374.343 390.126 372.671 390.385C372.354 390.385 372.066 390.126 371.864 389.837C367.916 380.874 369.818 387.705 365.581 372.314C363.42 364.389 363.045 358.077 360.739 358.048C360.435 358.065 360.146 358.185 359.92 358.39C359.694 358.595 359.546 358.871 359.5 359.172C358.931 362.279 358.756 365.446 358.981 368.597C357.511 366.867 353.217 361.91 351.517 363.092C348.03 365.455 360.768 379.375 363.996 403.844C357.05 406.438 357.742 409.608 357.742 409.925L361.172 462.696L321.457 474.714C321.602 473.253 321.353 471.78 320.736 470.448C322.845 470.409 324.872 469.623 326.455 468.23C328.038 466.837 329.076 464.926 329.383 462.84C329.612 461.231 329.392 459.591 328.746 458.1C328.1 456.61 327.053 455.327 325.722 454.395C327.515 453.861 329.092 452.77 330.224 451.281C331.356 449.791 331.986 447.981 332.021 446.11C332.056 444.239 331.496 442.406 330.421 440.875C329.345 439.344 327.811 438.195 326.039 437.593C327.406 436.418 328.379 434.853 328.829 433.108C329.279 431.363 329.183 429.523 328.555 427.834C327.927 426.145 326.797 424.689 325.317 423.661C323.837 422.634 322.077 422.085 320.275 422.088C321.091 420.518 321.418 418.741 321.214 416.984C321.009 415.228 320.284 413.573 319.13 412.233C317.976 410.893 316.447 409.929 314.74 409.467C313.033 409.004 311.227 409.063 309.554 409.637C309.804 407.835 309.493 405.999 308.662 404.381C307.831 402.762 306.522 401.439 304.912 400.591C303.302 399.744 301.47 399.413 299.665 399.645C297.86 399.876 296.171 400.658 294.827 401.884C294.529 399.96 293.628 398.18 292.253 396.801C290.879 395.422 289.102 394.514 287.179 394.21C285.256 393.905 283.286 394.219 281.552 395.107C279.819 395.994 278.412 397.408 277.535 399.146C276.64 397.544 275.268 396.259 273.611 395.47C271.953 394.682 270.091 394.428 268.283 394.745C266.475 395.061 264.81 395.933 263.519 397.238C262.228 398.543 261.375 400.217 261.078 402.028C259.673 400.962 257.981 400.342 256.221 400.247C254.46 400.152 252.711 400.588 251.2 401.497C249.689 402.406 248.485 403.747 247.744 405.347C247.003 406.947 246.759 408.732 247.042 410.473C245.336 409.95 243.511 409.956 241.808 410.49C240.104 411.024 238.602 412.06 237.499 413.463C236.395 414.866 235.742 416.569 235.624 418.35C235.507 420.131 235.93 421.906 236.84 423.442C234.729 423.475 232.7 424.259 231.115 425.654C229.531 427.048 228.495 428.962 228.194 431.051C227.95 432.663 228.167 434.311 228.82 435.805C229.472 437.299 230.534 438.579 231.883 439.495C230.098 440.051 228.535 441.157 227.418 442.656C226.301 444.154 225.687 445.968 225.664 447.837C225.642 449.706 226.212 451.535 227.293 453.06C228.374 454.585 229.91 455.728 231.681 456.326C230.337 457.506 229.383 459.067 228.946 460.801C228.509 462.536 228.61 464.362 229.235 466.038C229.86 467.714 230.981 469.16 232.447 470.185C233.913 471.209 235.656 471.763 237.445 471.774C236.644 473.348 236.333 475.127 236.551 476.879C236.769 478.632 237.507 480.28 238.669 481.61C239.832 482.94 241.366 483.891 243.074 484.342C244.782 484.792 246.586 484.721 248.253 484.138C247.992 485.95 248.302 487.797 249.139 489.425C249.976 491.053 251.298 492.38 252.923 493.222C254.547 494.065 256.394 494.381 258.206 494.127C260.019 493.873 261.707 493.061 263.038 491.804C263.308 493.666 264.165 495.392 265.486 496.731C266.806 498.07 268.52 498.952 270.377 499.248C272.234 499.544 274.137 499.239 275.809 498.377C277.48 497.515 278.832 496.141 279.667 494.456C280.27 495.556 281.101 496.516 282.104 497.27C283.107 498.023 284.26 498.554 285.485 498.827C286.71 499.1 287.979 499.108 289.207 498.852C290.435 498.595 291.595 498.079 292.608 497.338C294.249 502.121 296.445 506.697 299.15 510.97C315.433 535.986 337.251 548.437 369.068 547.255C370.711 549.762 379.703 561.665 399.993 563.654C421.09 565.671 479.48 541.952 483.774 540.165C513.573 548.007 542.48 558.912 570.034 572.704C570.123 572.779 570.235 572.82 570.351 572.82C570.467 572.82 570.579 572.779 570.668 572.704C572.599 570.369 574.53 567.919 576.432 565.326C591.304 572.531 594.906 576.162 605.829 572.704C618.654 568.525 646.668 574.519 645.861 566.45ZM394.258 414.277C393.652 413.413 393.595 412.721 393.739 412.577C393.883 412.433 396.275 412.577 401.665 418.571C401.319 421.05 401.117 424.163 400.944 427.218C399.308 422.623 397.059 418.27 394.258 414.277ZM401.002 440.216C401.982 436.152 401.866 418.543 403.567 414.709C403.999 413.73 413.769 402.259 417.429 397.821C418.18 396.763 419.167 395.895 420.311 395.284C420.311 395.746 420.081 398.166 414.547 406.813C413.135 408.34 411.838 409.695 410.858 410.53C410.339 411.02 411.06 411.827 411.579 411.337C415.527 407.793 423.799 398.022 428.381 392.921C428.554 392.719 428.669 392.633 428.669 392.575C429.159 393.411 427.891 399.579 418.063 411.136C416.997 411.943 415.959 412.663 414.98 413.326C414.887 413.416 414.828 413.535 414.815 413.663C414.801 413.792 414.834 413.921 414.906 414.028C414.979 414.134 415.086 414.212 415.21 414.247C415.335 414.282 415.467 414.273 415.585 414.22C422.848 409.378 431.609 401.567 431.984 402.086C432.358 402.605 431.724 406.265 421.868 415.516L418.669 416.583C418.527 416.617 418.405 416.706 418.33 416.831C418.254 416.955 418.231 417.104 418.265 417.246C418.3 417.387 418.389 417.509 418.513 417.585C418.637 417.66 418.787 417.684 418.928 417.649C432.502 414.248 432.819 413.528 433.54 413.585C433.713 414.075 431.84 417.534 420.369 424.393C417.746 425.949 418.352 427.967 419.303 431.051C422.012 439.899 420.455 440.648 414.778 457.681C407.878 456.909 401.381 454.043 396.16 449.467C401.088 440.706 400.858 440.994 401.002 440.36V440.216ZM420.052 457.854C418.467 461.629 416.968 465.117 415.556 468.373C410.289 468.484 405.061 467.449 400.234 465.339C395.406 463.229 391.096 460.095 387.6 456.153C389.589 451.946 391.231 448.141 392.269 445.634C394.748 453.156 412.876 461.226 420.052 457.998V457.854ZM360.912 359.662C360.912 359.086 361.402 359.662 361.69 360.037C362.642 361.824 363.593 368.885 366.849 380.211C364.954 376.809 362.836 373.535 360.509 370.412C360.179 366.827 360.314 363.213 360.912 359.662ZM354.658 370.873C352.237 366.089 352.295 364.446 352.497 364.245C352.698 364.043 353.534 363.928 357.684 368.597C360.89 372.41 363.709 376.532 366.1 380.903C369.026 385.571 371.469 390.525 373.392 395.688C373.456 395.804 373.561 395.893 373.687 395.938C373.812 395.983 373.95 395.98 374.074 395.93C374.197 395.881 374.299 395.788 374.359 395.669C374.419 395.55 374.434 395.413 374.4 395.284C373.882 393.959 373.392 392.806 372.93 391.74C375.812 391.74 377.657 383.468 378.695 380.211C379.502 378.05 380.453 376.926 380.741 376.926C381.029 376.926 381.634 377.358 381.288 383.497C380.885 391.048 383.911 405.228 385.583 412.49C379.387 415.137 372.539 415.86 365.927 414.565C366.446 399.752 361.316 384.189 354.658 370.873ZM359.356 412.634C364.918 418.254 384.862 417.13 389.762 410.963L390.309 420.733C385.604 423.048 380.463 424.342 375.223 424.531C369.983 424.719 364.763 423.798 359.904 421.828L359.356 412.634ZM361.229 463.762L361.633 470.42C361.633 470.565 361.69 470.704 361.793 470.807C361.896 470.909 362.035 470.967 362.18 470.967C362.326 470.967 362.465 470.909 362.568 470.807C362.67 470.704 362.728 470.565 362.728 470.42C361.719 453.127 360.999 441.138 359.846 423.067C364.724 424.976 369.942 425.863 375.177 425.675C380.411 425.486 385.552 424.226 390.28 421.972L391.548 444.51C388.782 451.456 379.012 474.224 370.625 479.988C362.238 485.752 325.06 479.988 314.915 477.942L361.229 463.762ZM280.849 448.055C280.823 447.953 280.768 447.861 280.692 447.79C280.615 447.718 280.52 447.67 280.417 447.651C274.393 446.354 276.007 439.409 280.128 441.599C281.8 442.492 282.751 442.694 283.385 442.32C283.622 442.141 283.807 441.903 283.924 441.63C284.04 441.357 284.083 441.058 284.048 440.763C284.682 429.004 293.155 425.69 299.525 437.045C303.704 444.481 307.047 457.652 302.407 462.984C299.899 465.866 295.403 466.068 288.976 463.589C288.857 463.548 288.727 463.549 288.609 463.593C288.491 463.636 288.391 463.719 288.327 463.827C288.262 463.936 288.237 464.063 288.256 464.187C288.275 464.312 288.336 464.426 288.429 464.511L297.219 471.111L287.333 472.84C283.039 453.531 282.348 454.77 280.849 448.055ZM300.303 510.336C293.616 500.047 290.36 486.156 287.593 473.907L298.285 472.033C299.348 473.887 300.532 475.668 301.83 477.365C299.642 477.892 297.59 478.874 295.807 480.247C295.708 480.34 295.647 480.467 295.637 480.602C295.626 480.737 295.665 480.871 295.748 480.979C295.83 481.086 295.95 481.16 296.083 481.184C296.216 481.209 296.354 481.183 296.47 481.112C302.234 476.645 308.632 477.567 315.722 479.066C326.414 481.083 362.238 486.876 371.23 480.708C376.706 476.962 382.758 466.298 387.081 457.306C390.627 461.203 394.955 464.307 399.782 466.418C404.609 468.529 409.827 469.598 415.095 469.555C398.61 507.483 393.508 511.518 374.746 513.218C355.138 515.065 335.38 514.552 315.895 511.691C315.814 511.672 315.731 511.671 315.65 511.689C315.57 511.707 315.494 511.743 315.43 511.795C315.365 511.846 315.313 511.911 315.277 511.985C315.241 512.06 315.222 512.141 315.222 512.224C315.222 512.306 315.241 512.388 315.277 512.462C315.313 512.536 315.365 512.602 315.43 512.653C315.494 512.704 315.57 512.74 315.65 512.758C315.731 512.776 315.814 512.776 315.895 512.757C324.479 514.211 333.139 515.173 341.833 515.639L372.988 522.239C372.095 531.692 369.76 543.797 369.299 546.218C339.095 547.053 317.509 536.793 300.303 510.336ZM570.351 571.493C542.787 557.746 513.881 546.872 484.091 539.041C483.978 539.013 483.859 539.013 483.745 539.041C483.111 539.301 421.435 564.49 400.31 562.501C380.136 560.57 371.489 548.437 370.077 546.477C372.359 535.912 373.728 525.17 374.17 514.371C390.511 512.959 397.226 509.068 407.486 488.721C456.11 448.159 501.585 403.966 543.519 356.521C557.007 361.824 568.449 372.17 577.499 387.762C544.896 424.51 510.257 459.4 473.745 492.265C472.015 492.611 457.259 496.444 407.457 508.636C407.316 508.67 407.194 508.759 407.118 508.883C407.043 509.008 407.02 509.157 407.054 509.298C407.088 509.44 407.177 509.562 407.302 509.637C407.426 509.713 407.575 509.736 407.717 509.702L471.756 493.793C479.702 491.812 488.027 491.941 495.908 494.168C528.029 503.084 559.08 515.484 588.508 531.144C587.845 546.765 580.179 559.446 570.351 571.493Z" fill="#001344"/>
<path d="M190.266 495.695L183.234 496.934C181.621 497.211 179.965 496.839 178.627 495.9C177.288 494.96 176.374 493.53 176.086 491.92L174.847 484.887C174.805 484.762 174.719 484.655 174.605 484.588C174.49 484.521 174.356 484.498 174.225 484.522C174.095 484.547 173.978 484.618 173.897 484.722C173.815 484.827 173.773 484.957 173.78 485.089L175.02 492.121C175.16 492.924 175.14 493.747 174.96 494.542C174.781 495.337 174.446 496.088 173.974 496.753C173.502 497.418 172.904 497.982 172.212 498.414C171.521 498.846 170.751 499.136 169.947 499.269L162.915 500.508C162.789 500.55 162.683 500.636 162.616 500.75C162.549 500.865 162.525 500.999 162.55 501.129C162.575 501.26 162.646 501.377 162.75 501.458C162.854 501.54 162.984 501.581 163.117 501.575L170.149 500.335C171.761 500.059 173.417 500.431 174.756 501.37C176.095 502.309 177.008 503.74 177.296 505.35L178.593 512.382C178.635 512.508 178.721 512.614 178.836 512.681C178.95 512.748 179.085 512.772 179.215 512.747C179.345 512.723 179.462 512.652 179.544 512.547C179.625 512.443 179.667 512.313 179.66 512.18L178.42 505.148C178.152 503.537 178.527 501.885 179.465 500.548C180.403 499.211 181.829 498.296 183.435 498.001L190.467 496.762C190.593 496.72 190.699 496.634 190.767 496.519C190.834 496.405 190.857 496.27 190.832 496.14C190.808 496.01 190.737 495.893 190.633 495.811C190.528 495.729 190.398 495.688 190.266 495.695ZM177.412 502.526C176.367 500.895 174.72 499.745 172.829 499.327C173.64 498.813 174.34 498.143 174.889 497.357C175.438 496.57 175.826 495.682 176.028 494.744C177.073 496.374 178.72 497.525 180.611 497.943C178.98 498.987 177.83 500.635 177.412 502.526Z" fill="#001344"/>
<path d="M461.467 248.386L460.862 302.309L494.322 360.239L494.928 306.315L461.467 248.386Z" fill="#F34C57"/>
<path d="M455.616 345.713L450.63 406.092L493.515 363.15L473.283 328.104L455.616 345.713Z" fill="#F34C57"/>
</g>
<defs>
<clipPath id="clip0_112_576">
<rect width="843" height="925" fill="white"/>
</clipPath>
</defs>
</svg>
