<svg width="217" height="55" viewBox="0 0 217 55" fill="none" xmlns="http://www.w3.org/2000/svg">
<path d="M45.8333 0H9.16667C4.1041 0 0 4.1041 0 9.16667V45.8333C0 50.8961 4.1041 55 9.16667 55H45.8333C50.8961 55 55 50.8961 55 45.8333V9.16667C55 4.1041 50.8961 0 45.8333 0Z" fill="url(#paint0_linear_178_600)"/>
<path d="M91.56 20.2V26.632H86.28V20.2H82.44V37H86.28V30.328H91.56V37H95.4V20.2H91.56ZM99.9638 23.944C101.14 23.944 102.124 22.96 102.124 21.784C102.124 20.608 101.14 19.624 99.9638 19.624C98.7878 19.624 97.8038 20.608 97.8038 21.784C97.8038 22.96 98.7878 23.944 99.9638 23.944ZM98.1638 37H101.764V25H98.1638V37ZM107.998 27.136V25H104.398V37H107.998V31.576C107.998 29.2 110.11 28.6 111.598 28.84V24.76C110.086 24.76 108.478 25.528 107.998 27.136ZM116.145 32.44H124.665C124.761 31.984 124.809 31.504 124.809 31C124.809 27.376 122.217 24.664 118.713 24.664C114.921 24.664 112.329 27.424 112.329 31C112.329 34.576 114.873 37.336 118.977 37.336C121.257 37.336 123.033 36.496 124.209 34.864L121.329 33.208C120.849 33.736 120.009 34.12 119.025 34.12C117.705 34.12 116.601 33.688 116.145 32.44ZM116.073 29.752C116.409 28.528 117.321 27.856 118.689 27.856C119.769 27.856 120.849 28.36 121.233 29.752H116.073ZM136.091 20.2V26.632H130.811V20.2H126.971V37H130.811V30.328H136.091V37H139.931V20.2H136.091ZM145.911 32.44H154.431C154.527 31.984 154.575 31.504 154.575 31C154.575 27.376 151.983 24.664 148.479 24.664C144.687 24.664 142.095 27.424 142.095 31C142.095 34.576 144.639 37.336 148.743 37.336C151.023 37.336 152.799 36.496 153.975 34.864L151.095 33.208C150.615 33.736 149.775 34.12 148.791 34.12C147.471 34.12 146.367 33.688 145.911 32.44ZM145.839 29.752C146.175 28.528 147.087 27.856 148.455 27.856C149.535 27.856 150.615 28.36 150.999 29.752H145.839ZM160.217 27.136V25H156.617V37H160.217V31.576C160.217 29.2 162.329 28.6 163.817 28.84V24.76C162.305 24.76 160.697 25.528 160.217 27.136ZM170.908 37.336C174.436 37.336 177.268 34.576 177.268 31C177.268 27.424 174.436 24.664 170.908 24.664C167.38 24.664 164.548 27.424 164.548 31C164.548 34.576 167.38 37.336 170.908 37.336ZM170.908 33.832C169.348 33.832 168.148 32.704 168.148 31C168.148 29.296 169.348 28.168 170.908 28.168C172.468 28.168 173.668 29.296 173.668 31C173.668 32.704 172.468 33.832 170.908 33.832ZM182.52 32.44H191.04C191.136 31.984 191.184 31.504 191.184 31C191.184 27.376 188.592 24.664 185.088 24.664C181.296 24.664 178.704 27.424 178.704 31C178.704 34.576 181.248 37.336 185.352 37.336C187.632 37.336 189.408 36.496 190.584 34.864L187.704 33.208C187.224 33.736 186.384 34.12 185.4 34.12C184.08 34.12 182.976 33.688 182.52 32.44ZM182.448 29.752C182.784 28.528 183.696 27.856 185.064 27.856C186.144 27.856 187.224 28.36 187.608 29.752H182.448ZM196.166 28.504C196.166 28.072 196.55 27.832 197.174 27.832C197.966 27.832 198.446 28.264 198.782 28.888L201.854 27.232C200.846 25.528 199.118 24.664 197.174 24.664C194.678 24.664 192.47 25.984 192.47 28.6C192.47 32.752 198.374 32.056 198.374 33.376C198.374 33.856 197.942 34.12 197.078 34.12C196.022 34.12 195.35 33.616 195.038 32.704L191.918 34.48C192.854 36.424 194.678 37.336 197.078 37.336C199.67 37.336 202.07 36.16 202.07 33.4C202.07 28.96 196.166 29.872 196.166 28.504Z" fill="#1C71FD"/>
<defs>
<linearGradient id="paint0_linear_178_600" x1="27.5" y1="0" x2="27.5" y2="55" gradientUnits="userSpaceOnUse">
<stop stop-color="#0073FC"/>
<stop offset="0.823023" stop-color="#556AFE"/>
<stop offset="1" stop-color="#8266FF"/>
</linearGradient>
</defs>
</svg>
