<svg width="843" height="925" viewBox="0 0 843 925" fill="none" xmlns="http://www.w3.org/2000/svg">
<g clip-path="url(#clip0_112_579)">
<rect width="843" height="925" fill="#D6D6D6"/>
<rect x="368" width="475" height="1080" fill="#A5A8FC"/>
<path d="M613.204 417.028C613.204 416.86 613.138 416.699 613.019 416.581C612.9 416.462 612.739 416.396 612.572 416.396C612.404 416.396 612.243 416.462 612.124 416.581C612.006 416.699 611.939 416.86 611.939 417.028V513.692C611.934 516.321 610.888 518.841 609.029 520.699C607.17 522.558 604.649 523.604 602.02 523.607H405.529C405.361 523.607 405.2 523.674 405.082 523.793C404.963 523.911 404.896 524.072 404.896 524.24C404.896 524.408 404.963 524.569 405.082 524.687C405.2 524.806 405.361 524.873 405.529 524.873H602.02C604.985 524.87 607.828 523.691 609.925 521.595C612.021 519.499 613.201 516.657 613.204 513.692V417.028Z" fill="#001344"/>
<path d="M462.977 353.6H405.529C402.564 353.603 399.721 354.783 397.625 356.879C395.528 358.976 394.349 361.819 394.345 364.784V391.759C394.345 391.927 394.412 392.088 394.53 392.207C394.649 392.325 394.81 392.392 394.978 392.392C395.146 392.392 395.306 392.325 395.425 392.207C395.544 392.088 395.61 391.927 395.61 391.759V364.784C395.613 362.154 396.659 359.633 398.518 357.773C400.378 355.914 402.899 354.868 405.529 354.865H462.977C463.144 354.865 463.305 354.799 463.424 354.68C463.543 354.561 463.609 354.4 463.609 354.233C463.609 354.065 463.543 353.904 463.424 353.785C463.305 353.667 463.144 353.6 462.977 353.6Z" fill="#001344"/>
<path d="M613.204 364.78C613.201 361.815 612.021 358.973 609.925 356.877C607.828 354.781 604.985 353.602 602.02 353.6H545.206V339.605C545.206 339.438 545.139 339.277 545.02 339.158C544.902 339.039 544.741 338.973 544.573 338.973H462.977C462.809 338.973 462.648 339.039 462.529 339.158C462.411 339.277 462.344 339.438 462.344 339.605V361.872C462.344 361.955 462.36 362.038 462.392 362.114C462.424 362.191 462.471 362.261 462.529 362.32C462.588 362.378 462.658 362.425 462.735 362.457C462.811 362.489 462.894 362.505 462.977 362.505H544.573C544.656 362.505 544.738 362.489 544.815 362.457C544.892 362.425 544.961 362.378 545.02 362.32C545.079 362.261 545.126 362.191 545.157 362.114C545.189 362.038 545.206 361.955 545.206 361.872V354.865H602.02C604.649 354.869 607.17 355.914 609.029 357.773C610.888 359.631 611.935 362.151 611.939 364.78V370.593C611.939 370.76 612.006 370.921 612.124 371.04C612.243 371.159 612.404 371.225 612.572 371.225C612.739 371.225 612.9 371.159 613.019 371.04C613.138 370.921 613.204 370.76 613.204 370.593V364.78ZM543.94 361.229H463.609V340.228H543.94V361.229Z" fill="#001344"/>
<path d="M503.771 339.605C502.303 339.606 500.867 339.171 499.646 338.356C498.424 337.54 497.472 336.381 496.91 335.024C496.347 333.668 496.2 332.175 496.486 330.735C496.772 329.294 497.479 327.971 498.517 326.932C499.555 325.893 500.878 325.186 502.318 324.899C503.759 324.613 505.252 324.759 506.609 325.321C507.965 325.883 509.125 326.835 509.941 328.056C510.757 329.277 511.193 330.712 511.193 332.181C511.191 334.149 510.409 336.036 509.017 337.428C507.626 338.82 505.739 339.603 503.771 339.605ZM503.771 326.029C502.554 326.029 501.364 326.39 500.351 327.066C499.339 327.743 498.55 328.704 498.084 329.829C497.618 330.954 497.496 332.192 497.734 333.386C497.972 334.581 498.559 335.677 499.42 336.538C500.281 337.399 501.378 337.985 502.573 338.222C503.767 338.459 505.005 338.337 506.129 337.87C507.254 337.404 508.215 336.615 508.891 335.602C509.567 334.589 509.928 333.399 509.927 332.181C509.924 330.549 509.275 328.986 508.121 327.832C506.967 326.679 505.403 326.03 503.771 326.029Z" fill="#001344"/>
<path d="M469.809 398.009H416.265C416.097 398.009 415.937 397.942 415.818 397.824C415.699 397.705 415.633 397.544 415.633 397.376V376.099C415.633 375.931 415.699 375.77 415.818 375.651C415.937 375.533 416.097 375.466 416.265 375.466H469.819C469.902 375.466 469.984 375.482 470.061 375.514C470.138 375.546 470.208 375.593 470.266 375.651C470.325 375.71 470.372 375.78 470.404 375.857C470.435 375.933 470.452 376.016 470.452 376.099V397.376C470.452 397.46 470.435 397.543 470.403 397.621C470.37 397.698 470.323 397.768 470.263 397.827C470.203 397.886 470.132 397.933 470.054 397.964C469.976 397.995 469.893 398.01 469.809 398.009ZM416.888 396.744H469.176V376.732H416.888V396.744Z" fill="#001344"/>
<path d="M469.809 437.35H443.298C443.13 437.35 442.969 437.283 442.851 437.165C442.732 437.046 442.665 436.885 442.665 436.717C442.665 436.549 442.732 436.388 442.851 436.27C442.969 436.151 443.13 436.084 443.298 436.084H469.176V419.529H429.566C429.399 419.529 429.238 419.462 429.119 419.344C429 419.225 428.934 419.064 428.934 418.896C428.934 418.728 429 418.567 429.119 418.449C429.238 418.33 429.399 418.263 429.566 418.263H469.809C469.977 418.263 470.138 418.33 470.256 418.449C470.375 418.567 470.442 418.728 470.442 418.896V436.734C470.437 436.899 470.369 437.055 470.251 437.171C470.132 437.286 469.974 437.35 469.809 437.35Z" fill="#001344"/>
<path d="M433.686 476.801H416.265C416.097 476.801 415.937 476.735 415.818 476.616C415.699 476.497 415.633 476.337 415.633 476.169V458.331C415.633 458.163 415.699 458.002 415.818 457.884C415.937 457.765 416.097 457.698 416.265 457.698H419.967C420.135 457.698 420.296 457.765 420.415 457.884C420.534 458.002 420.6 458.163 420.6 458.331C420.6 458.499 420.534 458.66 420.415 458.778C420.296 458.897 420.135 458.964 419.967 458.964H416.905V475.519H433.703C433.873 475.521 434.035 475.591 434.153 475.713C434.272 475.835 434.338 475.999 434.335 476.169C434.333 476.339 434.263 476.501 434.142 476.62C434.02 476.738 433.856 476.804 433.686 476.801Z" fill="#001344"/>
<path d="M469.176 468.448V458.981H460.735C460.567 458.981 460.407 458.914 460.288 458.795C460.169 458.677 460.103 458.516 460.103 458.348C460.103 458.18 460.169 458.019 460.288 457.9C460.407 457.782 460.567 457.715 460.735 457.715H469.822C469.99 457.715 470.151 457.782 470.27 457.9C470.389 458.019 470.455 458.18 470.455 458.348V468.445C470.456 468.614 470.389 468.777 470.269 468.897C470.149 469.018 469.987 469.085 469.817 469.086C469.648 469.086 469.485 469.019 469.365 468.9C469.245 468.78 469.177 468.618 469.176 468.448Z" fill="#001344"/>
<path d="M458.672 503.595H415.485C415.316 503.595 415.155 503.529 415.036 503.41C414.917 503.292 414.849 503.131 414.849 502.963V496.151C414.849 495.982 414.917 495.821 415.036 495.703C415.155 495.584 415.316 495.518 415.485 495.518H451.867C452.035 495.518 452.196 495.584 452.314 495.703C452.433 495.822 452.5 495.983 452.5 496.151C452.5 496.318 452.433 496.479 452.314 496.598C452.196 496.717 452.035 496.783 451.867 496.783H416.117V502.337H458.672C458.828 502.353 458.972 502.426 459.077 502.542C459.182 502.658 459.24 502.809 459.24 502.966C459.24 503.122 459.182 503.273 459.077 503.39C458.972 503.506 458.828 503.579 458.672 503.595Z" fill="#001344"/>
<path d="M591.156 503.595H482.356C482.188 503.595 482.027 503.528 481.909 503.41C481.79 503.291 481.723 503.13 481.723 502.962C481.723 502.794 481.79 502.633 481.909 502.515C482.027 502.396 482.188 502.329 482.356 502.329H590.52V496.776H487.906C487.738 496.776 487.577 496.71 487.458 496.591C487.34 496.472 487.273 496.311 487.273 496.143C487.273 495.976 487.34 495.815 487.458 495.696C487.577 495.577 487.738 495.511 487.906 495.511H591.156C591.239 495.511 591.322 495.527 591.398 495.559C591.475 495.591 591.545 495.637 591.604 495.696C591.662 495.755 591.709 495.825 591.741 495.901C591.773 495.978 591.789 496.06 591.789 496.143V502.962C591.789 503.045 591.773 503.128 591.741 503.204C591.709 503.281 591.662 503.351 591.604 503.41C591.545 503.468 591.475 503.515 591.398 503.547C591.322 503.579 591.239 503.595 591.156 503.595Z" fill="#001344"/>
<path d="M359.531 353.596H302.716V339.605C302.716 339.438 302.65 339.277 302.531 339.158C302.412 339.039 302.251 338.973 302.083 338.973H220.487C220.32 338.973 220.159 339.039 220.04 339.158C219.921 339.277 219.855 339.438 219.855 339.605V353.6H163.043C160.077 353.602 157.234 354.781 155.137 356.878C153.039 358.975 151.859 361.818 151.856 364.784V401.994C151.856 402.162 151.922 402.323 152.041 402.441C152.16 402.56 152.321 402.627 152.489 402.627C152.656 402.627 152.817 402.56 152.936 402.441C153.055 402.323 153.121 402.162 153.121 401.994V364.784C153.125 362.154 154.171 359.632 156.031 357.773C157.891 355.914 160.413 354.868 163.043 354.865H219.855V361.872C219.855 362.04 219.921 362.201 220.04 362.32C220.159 362.438 220.32 362.505 220.487 362.505H302.083C302.251 362.505 302.412 362.438 302.531 362.32C302.65 362.201 302.716 362.04 302.716 361.872V354.862H359.531C359.699 354.862 359.86 354.795 359.979 354.676C360.097 354.558 360.164 354.397 360.164 354.229C360.164 354.061 360.097 353.9 359.979 353.782C359.86 353.663 359.699 353.596 359.531 353.596ZM301.451 361.229H221.12V340.228H301.451V361.229Z" fill="#001344"/>
<path d="M261.285 339.605C259.816 339.609 258.379 339.177 257.155 338.364C255.931 337.551 254.977 336.392 254.412 335.036C253.847 333.68 253.697 332.186 253.981 330.745C254.265 329.303 254.971 327.978 256.008 326.938C257.046 325.898 258.369 325.189 259.809 324.9C261.25 324.612 262.744 324.758 264.102 325.32C265.46 325.881 266.62 326.833 267.437 328.054C268.254 329.275 268.69 330.712 268.69 332.181C268.688 334.146 267.908 336.03 266.52 337.422C265.133 338.813 263.251 339.598 261.285 339.605ZM261.285 326.029C260.068 326.029 258.878 326.39 257.865 327.066C256.853 327.743 256.064 328.704 255.598 329.829C255.132 330.954 255.01 332.192 255.248 333.386C255.486 334.581 256.073 335.677 256.934 336.538C257.795 337.399 258.892 337.985 260.087 338.222C261.281 338.459 262.519 338.337 263.643 337.87C264.768 337.404 265.729 336.614 266.405 335.602C267.081 334.589 267.442 333.399 267.441 332.181C267.438 330.549 266.789 328.986 265.635 327.832C264.481 326.679 262.917 326.03 261.285 326.029Z" fill="#001344"/>
<path d="M348.805 396.34H295.234C295.151 396.34 295.069 396.323 294.992 396.291C294.915 396.26 294.846 396.213 294.787 396.154C294.728 396.096 294.682 396.026 294.65 395.949C294.618 395.872 294.602 395.79 294.602 395.707V375.365C294.602 375.197 294.668 375.036 294.787 374.916C294.905 374.797 295.066 374.73 295.234 374.729H348.805C348.973 374.73 349.134 374.797 349.252 374.916C349.371 375.036 349.438 375.197 349.438 375.365V395.704C349.438 395.787 349.422 395.87 349.39 395.947C349.359 396.024 349.312 396.094 349.253 396.153C349.195 396.212 349.125 396.259 349.048 396.291C348.971 396.323 348.888 396.34 348.805 396.34ZM295.867 395.074H348.172V376.001H295.867V395.074Z" fill="#001344"/>
<path d="M348.805 503.595H173.766C173.598 503.595 173.437 503.529 173.318 503.41C173.2 503.291 173.133 503.13 173.133 502.963V496.151C173.133 495.983 173.2 495.822 173.318 495.703C173.437 495.584 173.598 495.518 173.766 495.518H348.805C348.973 495.518 349.134 495.584 349.252 495.703C349.371 495.822 349.438 495.983 349.438 496.151V502.969C349.436 503.136 349.368 503.295 349.25 503.412C349.131 503.53 348.972 503.595 348.805 503.595ZM174.399 502.33H348.172V496.777H174.399V502.33Z" fill="#001344"/>
<path d="M348.805 476.071H295.234C295.066 476.071 294.905 476.005 294.786 475.886C294.667 475.767 294.599 475.607 294.598 475.438V467.189C294.61 467.029 294.682 466.879 294.8 466.77C294.917 466.66 295.072 466.599 295.233 466.599C295.393 466.599 295.548 466.66 295.666 466.77C295.784 466.879 295.855 467.029 295.867 467.189V474.806H348.172V443.687C348.172 443.519 348.239 443.358 348.357 443.24C348.476 443.121 348.637 443.054 348.805 443.054C348.973 443.054 349.134 443.121 349.252 443.24C349.371 443.358 349.438 443.519 349.438 443.687V475.435C349.438 475.518 349.422 475.601 349.39 475.678C349.359 475.755 349.312 475.826 349.253 475.885C349.195 475.944 349.125 475.991 349.048 476.023C348.971 476.055 348.888 476.071 348.805 476.071Z" fill="#001344"/>
<path d="M329.937 413.138H301.807C301.64 413.138 301.479 413.071 301.36 412.952C301.241 412.834 301.175 412.673 301.175 412.505C301.175 412.337 301.241 412.176 301.36 412.057C301.479 411.939 301.64 411.872 301.807 411.872H329.937C330.105 411.872 330.266 411.939 330.385 412.057C330.503 412.176 330.57 412.337 330.57 412.505C330.57 412.673 330.503 412.834 330.385 412.952C330.266 413.071 330.105 413.138 329.937 413.138Z" fill="#001344"/>
<path d="M643.663 475.341L684.242 440.756L643.663 406.167C643.536 406.058 643.457 405.903 643.444 405.735C643.431 405.567 643.485 405.402 643.594 405.274C643.704 405.146 643.859 405.067 644.027 405.054C644.194 405.041 644.36 405.096 644.488 405.205C688.604 442.779 685.851 440.302 685.851 440.756C685.851 441.21 688.645 438.669 644.488 476.307C644.358 476.405 644.197 476.45 644.035 476.432C643.874 476.415 643.725 476.336 643.62 476.213C643.515 476.089 643.46 475.93 643.469 475.768C643.477 475.606 643.546 475.453 643.663 475.341Z" fill="#001344"/>
<path d="M119.953 475.287C119.593 475.287 122.393 477.542 78.3978 440.066C78.3282 440.006 78.2723 439.933 78.2339 439.85C78.1956 439.766 78.1758 439.676 78.1758 439.585C78.1758 439.493 78.1956 439.403 78.2339 439.32C78.2723 439.236 78.3282 439.163 78.3978 439.103L116.796 406.373C116.924 406.264 117.09 406.21 117.258 406.224C117.425 406.237 117.581 406.317 117.69 406.445C117.799 406.573 117.852 406.739 117.839 406.907C117.825 407.074 117.745 407.23 117.617 407.339L79.7844 439.585L120.364 474.173C120.462 474.257 120.532 474.369 120.565 474.494C120.598 474.619 120.591 474.752 120.547 474.873C120.502 474.994 120.421 475.099 120.315 475.173C120.209 475.247 120.082 475.287 119.953 475.287Z" fill="#001344"/>
<path d="M359.531 523.614H178.798C178.702 516.842 175.963 510.376 171.165 505.597C166.366 500.818 159.89 498.104 153.118 498.035V452.912C153.118 452.744 153.051 452.584 152.933 452.465C152.814 452.346 152.653 452.28 152.485 452.28C152.317 452.28 152.156 452.346 152.038 452.465C151.919 452.584 151.852 452.744 151.852 452.912V498.069C146.864 498.27 142.039 499.903 137.954 502.773C133.869 505.643 130.696 509.629 128.815 514.253C126.934 518.878 126.424 523.946 127.346 528.852C128.268 533.759 130.583 538.297 134.015 541.923L122.009 553.945C121.48 553.571 120.833 553.403 120.188 553.472C119.544 553.541 118.947 553.844 118.509 554.322L93.6945 579.133C93.1866 579.671 92.9084 580.386 92.9189 581.126C92.9294 581.865 93.2278 582.572 93.7508 583.095C94.2737 583.619 94.98 583.918 95.7198 583.929C96.4596 583.94 97.1746 583.662 97.7131 583.155L122.528 558.344C123.007 557.906 123.311 557.309 123.38 556.663C123.449 556.018 123.28 555.369 122.905 554.84L134.927 542.818C138.557 546.262 143.104 548.585 148.023 549.508C152.941 550.43 158.021 549.913 162.653 548.019C167.284 546.125 171.271 542.933 174.133 538.829C176.995 534.724 178.611 529.88 178.787 524.879H359.521C359.689 524.881 359.85 524.815 359.97 524.698C360.09 524.58 360.158 524.419 360.159 524.252C360.16 524.084 360.095 523.922 359.977 523.803C359.859 523.683 359.699 523.615 359.531 523.614ZM135.381 541.482C132.005 538.079 129.69 533.768 128.717 529.073C127.745 524.379 128.157 519.503 129.904 515.039C131.651 510.574 134.657 506.713 138.557 503.925C142.457 501.137 147.083 499.542 151.873 499.334C151.873 515.068 151.597 515.237 152.754 518.044C153.611 520.069 155.046 521.797 156.878 523.013C158.711 524.228 160.861 524.877 163.06 524.879H177.532C177.357 529.687 175.784 534.339 173.005 538.265C170.225 542.191 166.361 545.221 161.885 546.984C157.409 548.746 152.516 549.164 147.806 548.187C143.096 547.21 138.773 544.88 135.368 541.482H135.381Z" fill="#001344"/>
<path d="M335.827 252.994H308.29C308.122 252.994 307.961 252.928 307.842 252.809C307.724 252.69 307.657 252.53 307.657 252.362C307.657 252.194 307.724 252.033 307.842 251.914C307.961 251.796 308.122 251.729 308.29 251.729H335.827C335.995 251.729 336.156 251.796 336.275 251.914C336.393 252.033 336.46 252.194 336.46 252.362C336.46 252.53 336.393 252.69 336.275 252.809C336.156 252.928 335.995 252.994 335.827 252.994Z" fill="#001344"/>
<path d="M321.426 266.127V238.59C321.437 238.43 321.509 238.28 321.627 238.17C321.745 238.061 321.899 238 322.06 238C322.221 238 322.376 238.061 322.493 238.17C322.611 238.28 322.683 238.43 322.694 238.59V266.124C322.683 266.284 322.612 266.434 322.494 266.544C322.377 266.654 322.222 266.715 322.062 266.716C321.901 266.716 321.746 266.656 321.628 266.546C321.51 266.437 321.438 266.288 321.426 266.127Z" fill="#001344"/>
<path d="M462.963 655.748C461.285 655.746 459.644 655.255 458.24 654.336C456.836 653.418 455.729 652.11 455.055 650.573C454.381 649.037 454.168 647.337 454.443 645.682C454.718 644.026 455.469 642.487 456.603 641.25C457.738 640.014 459.207 639.134 460.833 638.719C462.459 638.303 464.171 638.369 465.759 638.909C467.348 639.449 468.746 640.439 469.781 641.76C470.817 643.08 471.447 644.673 471.593 646.345C471.698 647.541 471.554 648.746 471.168 649.883C470.782 651.02 470.163 652.064 469.351 652.949C468.539 653.834 467.552 654.54 466.452 655.022C465.352 655.504 464.164 655.751 462.963 655.748ZM462.99 639.718C461.501 639.715 460.046 640.162 458.816 641.001C457.586 641.839 456.638 643.03 456.097 644.417C455.555 645.804 455.446 647.323 455.783 648.773C456.12 650.223 456.887 651.538 457.985 652.544C459.082 653.551 460.458 654.202 461.932 654.412C463.406 654.622 464.909 654.382 466.244 653.723C467.579 653.064 468.684 652.017 469.413 650.719C470.143 649.42 470.462 647.932 470.331 646.449C470.163 644.615 469.319 642.909 467.961 641.665C466.604 640.42 464.832 639.726 462.99 639.718Z" fill="#001344"/>
<path d="M561.196 459.536C561.223 459.846 561.189 460.157 561.096 460.454C561.002 460.75 560.852 461.025 560.652 461.263C560.452 461.501 560.208 461.697 559.933 461.841C559.657 461.984 559.356 462.072 559.047 462.099C558.737 462.126 558.426 462.092 558.129 461.999C557.833 461.906 557.558 461.755 557.32 461.555C557.082 461.356 556.886 461.111 556.742 460.836C556.599 460.561 556.511 460.26 556.484 459.95C556.429 459.325 556.625 458.704 557.028 458.224C557.431 457.743 558.008 457.442 558.633 457.387C559.258 457.332 559.879 457.528 560.359 457.931C560.84 458.334 561.141 458.911 561.196 459.536Z" fill="#001344"/>
<path d="M536.754 443.243C536.809 443.868 536.614 444.489 536.211 444.97C535.808 445.45 535.23 445.751 534.606 445.806C533.981 445.861 533.36 445.665 532.879 445.262C532.398 444.859 532.098 444.282 532.043 443.657C531.988 443.032 532.183 442.411 532.586 441.93C532.989 441.45 533.567 441.149 534.192 441.094C534.816 441.039 535.437 441.235 535.918 441.638C536.399 442.041 536.7 442.618 536.754 443.243Z" fill="#001344"/>
<path d="M558.823 424.335C558.878 424.96 558.682 425.581 558.279 426.061C557.876 426.542 557.299 426.843 556.674 426.898C556.049 426.953 555.428 426.757 554.947 426.354C554.467 425.951 554.166 425.374 554.111 424.749C554.084 424.439 554.118 424.128 554.211 423.831C554.304 423.535 554.455 423.26 554.655 423.022C554.854 422.784 555.099 422.588 555.374 422.444C555.65 422.301 555.951 422.213 556.26 422.186C556.569 422.159 556.881 422.193 557.177 422.286C557.474 422.379 557.748 422.53 557.986 422.73C558.224 422.929 558.421 423.174 558.564 423.449C558.708 423.724 558.796 424.025 558.823 424.335Z" fill="#001344"/>
<path d="M273.203 428.969V452.613L255.756 441.792C256.227 434.452 255.833 427.387 253.319 422.945C253.236 422.798 253.099 422.691 252.937 422.646C252.775 422.601 252.602 422.622 252.456 422.704C252.309 422.787 252.202 422.924 252.157 423.086C252.111 423.248 252.133 423.421 252.215 423.567C257.839 433.52 252.215 457.762 250.929 467.183C251.69 469.868 252.816 472.436 254.275 474.816H201.653C203.598 472.529 205.36 470.094 206.924 467.533C206.968 467.44 206.99 467.338 206.985 467.235C206.981 467.132 206.952 467.032 206.9 466.944C202.438 459.19 198.79 450.996 196.013 442.492C193.108 433.203 194.424 432.453 193.142 432.436C192.613 432.533 193.377 431.49 184.748 446.467C178.215 448.771 171.551 450.681 164.79 452.189C158.963 453.511 152.862 452.835 147.465 450.272C142.069 447.708 137.691 443.405 135.034 438.053L108.974 385.718C112.446 381.649 116.744 378.365 121.582 376.084C126.421 373.803 131.689 372.577 137.037 372.487C161.152 421.137 159.923 419.317 160.704 419.118C176.245 414.651 191.363 408.823 205.881 401.701C216.587 406.965 229.171 409.301 240.233 404.589C247.214 408.008 257.462 409.587 269.07 418.755C269.136 418.806 269.212 418.844 269.293 418.866C269.374 418.888 269.459 418.895 269.542 418.884C269.625 418.874 269.706 418.847 269.779 418.805C269.851 418.764 269.916 418.708 269.967 418.642C270.019 418.576 270.056 418.5 270.079 418.419C270.101 418.338 270.107 418.253 270.096 418.17C270.086 418.087 270.059 418.006 270.018 417.933C269.976 417.86 269.921 417.796 269.854 417.745C250.529 402.482 235.061 407.914 232.698 392.503C238.727 392.025 244.517 389.932 249.459 386.445C253.043 383.69 255.898 380.1 257.775 375.988H263.258C263.425 375.988 263.586 375.921 263.705 375.802C263.824 375.684 263.89 375.523 263.89 375.355C263.89 375.187 263.824 375.026 263.705 374.908C263.586 374.789 263.425 374.722 263.258 374.722H258.31C260.232 369.888 260.759 364.611 259.833 359.492C258.907 354.373 256.565 349.616 253.072 345.76C249.579 341.905 245.075 339.107 240.071 337.682C235.068 336.257 229.765 336.264 224.765 337.7C225.238 334.747 224.812 331.719 223.544 329.01C222.275 326.301 220.222 324.036 217.65 322.508C215.078 320.981 212.107 320.261 209.121 320.442C206.136 320.623 203.273 321.698 200.905 323.525C198.537 325.353 196.773 327.85 195.842 330.693C194.91 333.535 194.854 336.592 195.681 339.467C196.508 342.342 198.18 344.902 200.479 346.815C202.778 348.728 205.599 349.906 208.576 350.197C206.405 353.864 205.101 357.98 204.765 362.228C204.429 366.477 205.07 370.746 206.638 374.709H173.766C173.598 374.709 173.437 374.775 173.318 374.894C173.2 375.013 173.133 375.174 173.133 375.342V413.807C169.273 415.116 165.197 416.426 160.862 417.752C136.461 368.482 138.04 371.306 137.528 371.195C135.576 371.202 133.626 371.354 131.696 371.649C128.014 365.642 124.959 359.272 122.578 352.64C120.559 346.539 119.337 345.869 118.425 346.044C116.89 346.32 116.826 349.49 116.87 350.84C116.948 353.108 118.523 359.722 117.503 360.418C117.385 360.499 117.055 360.466 116.493 360.142C107.251 353.593 97.1342 346.821 95.4345 345.892C89.6221 342.705 88.2792 343.25 87.7777 343.94C87.5522 344.247 86.9801 345.027 89.0466 347.626C78.8084 341.231 77.1962 344.011 78.6603 346.33C75.4798 345.717 74.4028 346.33 74.0898 347.05C73.9794 347.317 73.9705 347.615 74.0647 347.888C74.159 348.16 74.3499 348.389 74.6013 348.531C78.0074 350.705 83.5303 353.307 86.7613 355.168C88.5451 356.198 95.5725 360.614 97.2553 361.859C107.534 370.747 107.167 370.808 111.63 381.225C110.231 382.492 108.907 383.841 107.665 385.263C107.584 385.6 107.473 385.543 107.665 385.883L133.917 438.578C136.694 444.189 141.278 448.702 146.931 451.391C152.584 454.081 158.977 454.791 165.083 453.407C167.815 452.791 170.525 452.121 173.16 451.404V475.438C173.16 475.606 173.227 475.767 173.345 475.886C173.464 476.004 173.625 476.071 173.793 476.071H273.836C274.004 476.071 274.165 476.004 274.283 475.886C274.402 475.767 274.469 475.606 274.469 475.438V428.969C274.469 428.801 274.402 428.641 274.283 428.522C274.165 428.403 274.004 428.337 273.836 428.337C273.668 428.337 273.507 428.403 273.388 428.522C273.27 428.641 273.203 428.801 273.203 428.969ZM224.843 371.811C221.373 367.867 224.392 363.929 226.731 368.657C227.262 369.731 227.905 369.896 228.343 369.839C229.901 369.657 231.059 366.137 231.708 363.612C235.575 365.226 239.657 366.265 243.825 366.695C243.464 378.475 240.516 393.001 232.281 384.634C229.4 381.696 229.413 380.235 228.511 380.407C228.387 380.432 228.274 380.494 228.186 380.585C228.098 380.676 228.039 380.791 228.016 380.915C227.707 382.923 227.848 384.974 228.43 386.92C229.013 388.866 230.021 390.658 231.382 392.166C231.52 394.578 232.273 396.914 233.569 398.953C234.865 400.992 236.661 402.666 238.786 403.815C229.679 407.312 218.593 406.319 207.304 400.977C213.082 398.747 217.818 394.439 220.585 388.898C224.425 381.723 225.808 372.925 224.843 371.811ZM174.399 375.998H207.176C209.731 381.428 213.917 385.925 219.151 388.861C215.254 395.852 211.811 397.235 205.554 400.449C195.497 405.51 185.084 409.831 174.399 413.376V375.998ZM118.603 347.292C118.64 347.292 119.569 347.605 121.377 353.038C123.375 358.705 125.901 364.172 128.922 369.368C126.274 367.23 122.43 364.39 118.277 361.418C120.175 359.988 118.237 353.768 118.136 350.799C118.008 349.61 118.169 348.407 118.603 347.292ZM75.224 347.585C75.3923 347.387 76.6611 347.033 80.1815 347.989C81.6321 349.204 87.3941 353.176 90.7462 356.124C84.0789 351.957 82.0898 351.436 75.224 347.585ZM96.7437 359.759C91.9433 355.237 86.8097 351.082 81.3864 347.33C79.8483 346.172 79.3839 345.189 79.4411 344.974C80.7032 344.226 87.7273 347.767 93.3142 352.068C97.1119 355.856 100.505 360.03 103.438 364.521C103.952 365.385 104.468 366.289 104.986 367.234C102.526 364.73 99.4531 362.088 96.7437 359.759ZM104.528 363.875C101.189 358.807 97.2959 354.127 92.9204 349.921C89.3158 346.478 88.7268 344.953 88.7639 344.711C88.7639 344.711 89.713 344.203 94.822 347.003C97.565 348.504 123.399 366.056 130.026 371.939C123.599 373.197 117.606 376.096 112.629 380.353C110.245 374.71 107.541 369.209 104.528 363.875ZM199.913 474.806H174.399V451.058C181.474 449.166 188.372 446.661 195.013 443.573C197.759 451.802 201.309 459.74 205.611 467.273C203.935 469.945 202.028 472.466 199.913 474.806ZM273.203 474.806H255.752C254.283 472.416 253.092 469.866 252.202 467.206C252.915 462.09 254.894 452.636 255.651 443.219L273.203 454.121V474.806Z" fill="#001344"/>
<path d="M713.167 323.837C712.85 323.467 711.878 322.33 706.065 326.405C704.103 327.78 702.037 329.001 699.886 330.057C701.158 328.529 703.161 326.059 706.331 322.091C707.677 320.408 710.595 316.369 709.088 314.966C708.014 313.956 705.641 315.117 702.037 318.399C700.308 319.982 698.501 321.477 696.621 322.878C698.439 319.974 701.155 315.504 703.238 311.509C704.329 309.412 705.931 305.737 704.285 304.677C702.572 303.566 699.573 306.838 697.947 308.891C697.547 309.392 693.485 314.192 689.348 319.062C689.988 316.394 690.862 313.788 691.96 311.274C693.501 307.699 693.643 305.162 692.354 304.488C691.065 303.815 688.988 305.478 686.693 309.241C686.289 309.914 679.756 320.398 678.562 321.791C676.818 323.837 675.697 324.399 675.374 324.285C671.484 322.858 666.96 313.115 662.901 315.03C659.872 316.45 664.288 323.444 666.159 327.429C666.449 328.93 666.313 330.483 665.765 331.911C665.217 333.339 664.28 334.584 663.059 335.506C663.006 335.543 662.656 335.843 662.114 336.304C661.257 335.662 660.231 335.284 659.163 335.217C658.094 335.15 657.03 335.397 656.099 335.927C655.547 336.361 616.385 367.375 591.816 386.219V376.099C591.816 375.931 591.749 375.77 591.631 375.651C591.512 375.533 591.351 375.466 591.183 375.466H581.628C581.718 374.574 581.599 373.674 581.281 372.836C580.963 371.999 580.453 371.247 579.794 370.64C580.643 370.179 581.366 369.516 581.897 368.709C582.429 367.902 582.753 366.976 582.841 366.014C582.929 365.052 582.778 364.083 582.401 363.193C582.025 362.303 581.434 361.52 580.683 360.913C581.229 360.239 581.57 359.42 581.662 358.557C582.528 359.242 583.614 359.587 584.717 359.528C585.819 359.469 586.862 359.011 587.651 358.238C588.439 357.465 588.919 356.431 589 355.33C589.081 354.229 588.757 353.136 588.09 352.257C589.195 352.14 590.219 351.621 590.967 350.799C591.714 349.977 592.133 348.909 592.145 347.797C592.156 346.686 591.758 345.61 591.028 344.772C590.297 343.935 589.284 343.396 588.181 343.257C588.882 342.398 589.244 341.313 589.199 340.205C589.154 339.098 588.705 338.045 587.938 337.246C587.17 336.447 586.136 335.956 585.031 335.867C583.927 335.778 582.828 336.096 581.941 336.761C581.775 335.649 581.216 334.633 580.366 333.897C579.516 333.16 578.43 332.753 577.305 332.747C576.18 332.741 575.091 333.138 574.233 333.866C573.376 334.593 572.806 335.604 572.629 336.714C571.752 336.052 570.664 335.73 569.568 335.81C568.472 335.889 567.441 336.363 566.669 337.144C565.896 337.926 565.433 338.961 565.366 340.058C565.299 341.155 565.633 342.239 566.305 343.109C565.63 343.17 564.979 343.388 564.404 343.747C563.829 344.106 563.347 344.596 562.996 345.175C562.374 344.297 561.531 343.598 560.553 343.15C559.574 342.701 558.495 342.519 557.423 342.621C556.352 342.724 555.326 343.107 554.45 343.733C553.574 344.359 552.879 345.205 552.435 346.185C551.564 345.478 550.507 345.037 549.391 344.916C548.275 344.795 547.148 344.998 546.146 345.502C545.143 346.005 544.307 346.788 543.737 347.755C543.168 348.722 542.89 349.833 542.937 350.954C541.841 350.776 540.718 350.916 539.699 351.357C538.68 351.798 537.809 352.522 537.189 353.443C536.569 354.364 536.227 355.443 536.201 356.553C536.176 357.663 536.47 358.757 537.047 359.705C535.952 360.039 534.979 360.687 534.25 361.57C533.521 362.453 533.068 363.531 532.947 364.67C532.826 365.809 533.044 366.958 533.572 367.974C534.1 368.99 534.915 369.828 535.917 370.384C535.22 371.015 534.687 371.806 534.364 372.689C534.041 373.572 533.937 374.521 534.062 375.453H491.083C490.915 375.453 490.754 375.519 490.636 375.638C490.517 375.757 490.45 375.917 490.45 376.085V476.169C490.45 476.336 490.517 476.497 490.636 476.616C490.754 476.735 490.915 476.801 491.083 476.801H591.156C591.324 476.801 591.485 476.735 591.604 476.616C591.722 476.497 591.789 476.336 591.789 476.169V434.166L678.198 366.278C680.507 364.595 680.015 361.139 679.164 358.419C692.229 347.434 695.622 343.563 705.752 334.22C707.025 333.049 708.374 331.723 709.764 330.283C712.891 327.015 714.035 324.85 713.167 323.837ZM568.2 387.579C569.211 388.034 570.331 388.189 571.428 388.027C572.525 387.865 573.553 387.392 574.39 386.664C575.226 385.936 575.836 384.983 576.148 383.919C576.46 382.855 576.46 381.724 576.149 380.659C577.309 380.604 578.424 380.2 579.349 379.499C580.275 378.798 580.966 377.833 581.332 376.731H590.52V387.185C581.362 394.196 574.446 399.335 572.72 400.244C562.734 405.481 556.901 402.031 555.488 391.692C556.375 391.264 557.141 390.62 557.712 389.817C558.369 390.753 559.287 391.474 560.351 391.892C561.415 392.31 562.578 392.405 563.696 392.167C564.814 391.928 565.837 391.366 566.638 390.55C567.439 389.734 567.982 388.701 568.2 387.579ZM536.004 377.543C536.805 373.881 538.559 366.874 542.099 365.598C545.222 364.471 548.262 368.661 549.591 371.703C550.087 372.84 550.445 374.032 550.658 375.254C551.109 376.644 552.068 376.9 553.014 376.331C553.617 375.92 554.154 375.421 554.609 374.85C557.638 371.316 561.34 377.112 554.963 381.992C554.047 382.685 553.973 386.616 553.973 387.771C553.973 393.314 555.43 400.375 560.368 402.943C552.852 417.358 546.128 422.931 541.073 407.614C542.568 406.177 543.743 404.441 544.523 402.52C545.302 400.598 545.668 398.533 545.596 396.461L548.204 392.957C548.264 392.858 548.294 392.745 548.293 392.63C548.293 392.515 548.26 392.402 548.199 392.304C548.138 392.206 548.051 392.127 547.948 392.076C547.845 392.024 547.73 392.002 547.615 392.011C547.279 392.065 546.942 392.348 545.677 392.789C535.072 396.632 533.604 388.491 536.004 377.543ZM491.719 376.731H534.362C534.463 376.995 534.582 377.252 534.718 377.499C532.524 387.973 533.739 397.228 544.142 394.579C544.519 396.832 544.327 399.143 543.584 401.303C542.841 403.463 541.571 405.403 539.888 406.948C533.85 413.487 519.94 407.51 491.709 450.566L491.719 376.731ZM509.863 475.536C514.984 470.515 519.518 464.928 523.376 458.883C524.628 463.117 526.809 469.72 529.02 475.536H509.863ZM524.218 457.23C519.058 439.147 521.828 435.798 525.365 428.343C525.437 428.191 525.445 428.017 525.388 427.859C525.331 427.7 525.213 427.572 525.061 427.5C524.909 427.429 524.734 427.421 524.576 427.478C524.418 427.535 524.289 427.653 524.218 427.805C520.613 435.488 517.705 438.874 522.912 457.271C518.743 463.966 513.738 470.104 508.019 475.536H491.719V452.889C518.981 410.68 532.228 414.686 540.013 408.513C541.779 413.679 543.843 416.702 546.279 417.674C542.739 433.6 543.405 452.889 548.124 475.536H530.36C527.896 469.023 525.547 461.895 524.218 457.23ZM590.52 475.536H578.966C578.959 464.226 579.991 452.94 582.049 441.819L590.52 435.162V475.536ZM677.437 365.248L592.839 431.729C582.116 433.59 582.668 433.395 582.426 433.732C582.167 434.179 580.932 440.897 580.848 441.351C578.742 452.622 577.689 464.064 577.701 475.529H549.43C544.751 453.067 544.014 433.732 547.504 417.977C553.179 418.721 558.857 408.523 561.509 403.428C563.515 403.874 565.591 403.921 567.615 403.565C569.64 403.208 571.575 402.456 573.309 401.351C579.76 397.962 653.747 339.393 656.863 336.909C662.945 332.285 683.856 360.587 677.437 365.248ZM708.845 329.394C705.587 332.76 705.746 332.369 696.928 340.753C691.849 345.583 687.447 349.773 678.713 357.127C675.445 349.15 670.099 342.196 663.231 336.987C663.521 336.738 663.709 336.576 663.78 336.522C665.244 335.439 666.357 333.947 666.979 332.235C667.601 330.522 667.704 328.664 667.277 326.893C666.385 324.992 661.861 316.911 663.416 316.174C666.139 314.888 670.928 324.016 674.913 325.473C675.32 325.621 676.549 326.072 679.497 322.612C680.813 321.078 687.682 310.001 687.746 309.897C690.19 305.912 691.573 305.522 691.745 305.613C692.007 305.751 692.276 307.295 690.769 310.775C689.298 314.039 688.255 317.479 687.666 321.01L686.121 322.838C685.283 322.252 684.381 321.68 683.398 321.118C683.253 321.041 683.083 321.023 682.925 321.068C682.767 321.113 682.633 321.219 682.551 321.361C682.469 321.504 682.446 321.673 682.487 321.832C682.527 321.992 682.628 322.129 682.769 322.215C688.126 325.073 692.304 329.728 694.568 335.361C694.638 335.514 694.766 335.634 694.923 335.693C695.081 335.752 695.255 335.746 695.408 335.676C695.561 335.606 695.68 335.479 695.739 335.321C695.798 335.164 695.792 334.989 695.723 334.836C693.902 330.401 690.945 326.522 687.151 323.592C688.036 322.582 698.61 310.059 698.91 309.675C701.939 305.882 703.4 305.636 703.568 305.737C703.736 305.838 704.066 307.131 702.087 310.927C699.129 316.601 694.737 323.46 693.862 324.817C693.782 324.938 693.747 325.083 693.762 325.227C693.777 325.371 693.84 325.506 693.942 325.609C694.044 325.711 694.178 325.776 694.322 325.792C694.466 325.808 694.611 325.774 694.733 325.695C697.619 323.806 700.341 321.678 702.871 319.334C706.419 316.107 707.957 315.767 708.199 315.881C708.327 316.08 708.199 317.668 705.325 321.303C703.437 323.659 697.702 330.868 697.046 331.353C696.916 331.442 696.824 331.575 696.788 331.728C696.752 331.881 696.773 332.041 696.849 332.179C696.924 332.317 697.048 332.421 697.196 332.473C697.345 332.524 697.507 332.518 697.651 332.457C700.864 331.117 703.923 329.436 706.775 327.442C710.478 324.854 711.969 324.585 712.16 324.622C712.251 324.881 711.797 326.328 708.855 329.394H708.845Z" fill="#001344"/>
<path d="M681.049 327.21C684.657 333.571 684.337 338.973 680.1 343.274C679.992 343.395 679.935 343.553 679.94 343.715C679.945 343.877 680.012 344.03 680.127 344.144C680.243 344.258 680.397 344.324 680.559 344.327C680.721 344.33 680.878 344.271 680.998 344.162C685.683 339.41 686.07 333.497 682.149 326.584C682.066 326.438 681.929 326.331 681.767 326.286C681.605 326.242 681.432 326.263 681.286 326.346C681.14 326.429 681.033 326.567 680.989 326.729C680.944 326.891 680.966 327.064 681.049 327.21Z" fill="#001344"/>
<path d="M392.306 391.116C386.093 396.959 376.868 396.242 365.916 391.759C369.584 390.827 368.608 381.305 369.059 377.226C364.206 381.652 359.151 385.139 357.495 382.352C355.812 379.505 355.772 373.201 358.296 356.302C359.893 357.163 361.569 357.867 363.301 358.406C362.661 364.932 364.906 365.302 366.212 363.01C368.639 358.746 373.485 362.219 368.766 368.769C371.17 371.279 381.189 381.894 382.815 383.648C385.352 386.844 388.603 389.401 392.306 391.116Z" fill="#FFD0C7"/>
<path d="M545.35 553.245C537.784 552.817 531.517 565.782 529.175 574.112C527.422 579.913 526.873 586.012 527.563 592.033C528.263 596.631 530.074 599.835 532.84 600.619L463.768 581.513C458.679 580.108 453.957 577.614 449.928 574.202L402.742 534.232C399.78 567.424 380.923 712.745 380.923 712.745C365.684 716.765 349.539 715.58 335.05 709.379C337.628 684.44 351.009 542.263 361.863 471.962C359.366 468.125 354.94 449.601 352.403 438.329C365.401 445.616 351.918 395.606 351.82 395.249C354.176 394.576 356.825 393.95 359.985 393.189C362.3 399.753 364.02 406.512 365.125 413.383L401.033 412.404C399.809 405.523 398.054 398.747 395.785 392.136C398.957 393 401.998 394.289 404.826 395.966C405.024 396.118 408.639 400.109 410.712 412.562C411.632 418.234 411.908 423.992 411.533 429.727C410.62 441.74 410.756 453.81 411.94 465.799C426.056 472.17 433.894 486.777 439.875 499.092C447.926 515.728 468.059 534.195 468.059 534.195C552.771 555.062 545.014 553.228 545.35 553.245Z" fill="#F34C57"/>
<path d="M293.757 401.981C285.215 403.143 277.101 406.428 270.157 411.536C269.74 406.389 268.438 401.353 266.307 396.649C259.515 395.815 256.523 387.34 258.263 384.237C258.663 383.569 259.31 383.085 260.064 382.891C259.576 381.603 259.526 380.191 259.922 378.872C260.231 378.378 260.669 377.976 261.188 377.711C261.707 377.445 262.289 377.326 262.871 377.364C262.866 376.684 262.999 376.01 263.261 375.382C264.271 373.211 269.013 373.258 273.593 376.318C266.977 363.784 268.424 355.054 269.659 357.662C273.823 365.406 278.402 372.919 283.377 380.168C283.566 378.24 284.094 374.961 285.488 374.706C287.063 374.416 291.801 393.58 293.757 401.981Z" fill="#FFD0C7"/>
<path d="M512.344 520.467C509.672 519.448 507.073 518.246 504.566 516.869C507.412 519.797 510.414 522.57 513.559 525.176C517.719 527.979 515.645 530.561 510.483 528.221C507.269 526.638 504.159 524.85 501.173 522.87C503.586 525.711 505.75 528.471 506.78 529.399C510.499 532.738 508.127 535.081 503.381 532.092C500.606 530.258 497.951 528.249 495.431 526.078C496.182 527.588 497.054 529.034 498.04 530.402C501.264 534.044 499.221 535.474 494.775 532.28C486.176 525.746 478.023 518.645 470.371 511.023C479.176 507.258 486.279 500.37 490.312 491.684C493.89 494.49 498.001 496.539 502.395 497.705C515.743 501.105 514.265 504.888 498.235 504.029C503.223 509.05 508.804 513.444 514.854 517.115C519.075 519.834 517.719 522.443 512.344 520.467Z" fill="#FFD0C7"/>
<path d="M680.032 759.096H375.878C376.031 751.586 374.87 744.107 372.445 736.997C371.826 735.143 372.085 736.725 374.353 714.693C376.524 714.357 378.783 713.913 381.085 713.374C381.21 713.345 381.324 713.278 381.41 713.182C381.497 713.086 381.552 712.967 381.569 712.839C381.754 711.402 400.02 570.531 403.281 535.515L449.541 574.697C453.64 578.164 458.44 580.701 463.613 582.135L532.608 601.215C534.166 601.455 535.759 601.279 537.226 600.704C538.694 600.128 539.982 599.175 540.962 597.94C543.526 601.529 545.277 605.634 546.094 609.969C548.878 619.625 549.732 631.62 554.845 636.827C559.059 641.131 563.165 640.061 566.651 635.326C572.925 626.804 577.055 606.923 577.899 591.404C578.885 573.23 575.644 562.329 569.263 561.787C566.571 561.558 559.129 560.134 551.203 558.364C550.892 556.971 550.194 555.695 549.189 554.683C548.183 553.67 546.912 552.963 545.522 552.642L468.396 533.691C466.736 532.146 448.064 514.564 440.461 498.89C434.255 486.074 426.467 471.888 412.547 465.443C411.832 459.368 411.519 453.253 411.608 447.137C428.503 473.258 445.038 490.994 467.638 512.517C467.756 512.63 467.913 512.693 468.076 512.692C468.826 512.444 469.558 512.143 470.267 511.794C477.847 519.324 485.92 526.343 494.432 532.802C495.869 533.835 498.74 535.525 499.928 534.219C500.372 533.724 500.78 532.536 498.538 529.992C498.202 529.589 497.904 529.156 497.646 528.699C499.385 530.105 501.196 531.419 503.072 532.637C508.753 536.228 511.314 532.614 507.231 528.935C506.17 527.85 505.167 526.71 504.226 525.519C506.172 526.723 508.182 527.821 510.247 528.807C513.131 530.123 515.481 530.106 516.231 528.767C516.884 527.602 516.026 526.074 513.939 524.661C511.858 523.008 509.883 521.227 508.026 519.326C510.614 520.538 516.554 523.321 517.84 520.763C518.429 519.585 517.453 518.02 515.225 516.583C509.679 513.213 504.523 509.24 499.851 504.736C505.572 504.945 511.721 504.622 512.078 502.293C512.351 500.516 509.153 498.769 502.58 497.093C498.433 495.995 494.544 494.089 491.137 491.482C491.403 490.877 491.659 490.261 491.894 489.631C491.94 489.512 491.949 489.381 491.919 489.257C491.889 489.132 491.822 489.02 491.726 488.935C472.511 471.529 455.151 452.18 439.922 431.197C427.709 415.164 414.246 396.602 395.318 391.396C391.367 390.309 388.708 389.312 383.282 383.217C375.878 374.914 386.709 356.965 392.467 347.619C395.991 341.897 391.219 339.017 387.469 342.093C386.773 340.073 383.333 339.181 380.469 341.756C379.604 339.821 375.962 339.128 373.364 342.113C372.28 340.255 368.777 339.757 366.118 343.294C364.802 341.309 360.608 342.18 359.467 346.996C358.75 350.025 358.145 353.293 357.67 356.215C354.722 374.389 355.361 379.872 356.936 382.665C357.115 382.985 357.323 383.287 357.559 383.567C359.138 385.428 365.684 384.947 368.134 384.711C367.935 387.818 367.4 390.743 365.778 391.157C339.923 397.713 341.387 394.378 314.361 433.284C307.503 423.536 302.064 412.864 298.206 401.587C298.164 401.453 298.078 401.338 297.963 401.259C297.848 401.18 297.71 401.141 297.57 401.149L294.255 401.331C287.82 373.649 286.05 373.972 285.373 374.093C284.222 374.305 283.415 375.776 282.97 378.421C278.208 371.689 273.934 364.624 270.181 357.282C269.673 356.272 268.814 356.481 268.451 357.043C267.576 358.389 267.522 365.228 272.079 374.712C269.893 373.466 267.341 373.024 264.863 373.464C264.114 373.636 263.447 374.061 262.975 374.668C262.504 375.276 262.256 376.027 262.275 376.796C259.185 377.216 258.526 379.471 259.3 382.517C254.558 384.708 258.098 395.98 265.876 397.242C267.856 401.678 269.084 406.413 269.508 411.253C268.774 411.795 268.064 412.347 267.384 412.909C267.288 412.989 267.218 413.095 267.182 413.215C267.146 413.334 267.146 413.462 267.182 413.582C273.518 431.725 282.089 449.008 292.697 465.032C300.367 476.172 317.552 479.504 327.622 470.037C337.008 461.07 345.242 450.969 352.134 439.968C354.675 451.159 358.757 467.97 361.221 472.123C350.357 542.606 337.012 684.416 334.444 709.342C334.43 709.476 334.458 709.61 334.525 709.726C334.592 709.842 334.695 709.934 334.818 709.988C337.014 710.955 339.261 711.803 341.549 712.529L340.6 720.657C340.135 724.713 338.621 728.578 336.208 731.87C333.795 735.163 330.565 737.77 326.838 739.434C316.78 743.933 307.291 749.607 298.566 756.336C298.161 756.655 297.879 757.105 297.767 757.609C297.655 758.112 297.721 758.639 297.954 759.099H107.403C106.831 759.099 106.188 760.109 107.541 760.213C115.029 760.712 178.825 760.365 680.032 760.365C680.201 760.365 680.362 760.298 680.481 760.179C680.6 760.06 680.667 759.899 680.667 759.73C680.667 759.562 680.6 759.401 680.481 759.282C680.362 759.163 680.201 759.096 680.032 759.096ZM541.389 596.577C539.98 595.204 538.242 594.217 536.341 593.71C533.668 592.764 530.926 592.029 528.139 591.512C526.587 580.335 531.841 563.661 539.218 556.681C547.03 558.764 556.612 561.056 566.328 562.645C555.531 569.713 548.248 618.067 554.182 633.902C549.009 625.495 548.632 603.854 541.389 596.577ZM510.799 502.094C510.738 502.501 508.443 503.901 498.514 503.4C497.619 502.474 496.704 501.465 495.792 500.398C495.682 500.274 495.528 500.197 495.362 500.186C495.197 500.174 495.033 500.228 494.907 500.336C494.781 500.443 494.702 500.596 494.687 500.761C494.673 500.927 494.724 501.091 494.829 501.219C506.151 514.463 517.715 518.114 516.679 520.188C516.514 520.524 515.289 520.881 512.566 519.875C507.759 517.984 503.165 515.59 498.861 512.733C498.721 512.64 498.55 512.608 498.385 512.641C498.221 512.675 498.077 512.773 497.984 512.913C497.892 513.053 497.859 513.224 497.893 513.389C497.927 513.553 498.024 513.697 498.164 513.79C499.215 514.48 501.385 515.866 504.186 517.384C507.042 520.314 510.053 523.091 513.205 525.701C514.929 526.862 515.282 527.811 515.097 528.141C514.831 528.619 513.263 528.79 510.745 527.646C504.882 524.582 499.256 521.082 493.917 517.175C493.783 517.096 493.624 517.07 493.471 517.101C493.318 517.132 493.182 517.218 493.089 517.344C492.996 517.469 492.952 517.624 492.967 517.779C492.981 517.935 493.052 518.079 493.167 518.185C494.637 519.266 497.636 521.335 500.763 523.341C503.263 526.29 505.303 528.901 506.366 529.857C507.925 531.257 508.137 532.267 507.905 532.573C507.568 533.007 506.02 532.98 503.731 531.537C498.954 528.278 494.463 524.618 490.306 520.598C490.186 520.481 490.024 520.416 489.856 520.418C489.688 520.42 489.528 520.488 489.41 520.608C489.293 520.728 489.228 520.89 489.23 521.058C489.232 521.226 489.301 521.386 489.421 521.504C490.487 522.55 492.49 524.395 494.937 526.454C495.694 527.975 496.576 529.429 497.575 530.803C499.066 532.486 499.036 533.263 498.972 533.337C498.831 533.495 497.579 533.485 495.152 531.745C486.816 525.419 478.904 518.552 471.468 511.188C479.79 507.404 486.54 500.848 490.565 492.64C494.057 495.265 498.026 497.188 502.25 498.301C509.419 500.139 510.86 501.694 510.799 502.094ZM490.514 489.577C488.478 494.533 485.445 499.018 481.605 502.754C477.764 506.49 473.197 509.397 468.187 511.296C445.344 489.524 428.722 471.602 411.601 444.808C411.799 429.326 413.247 424.008 411.335 412.498C410.674 407.468 409.196 402.58 406.96 398.026C431.781 413.864 443.295 447.272 490.514 489.577ZM395.291 392.701C397.409 398.955 399.095 405.347 400.339 411.832L365.704 412.777C364.601 406.281 362.963 399.887 360.807 393.661C362.55 393.243 364.273 392.829 365.879 392.422C374.804 396.05 385.248 398.309 392.467 391.847C393.558 392.247 394.816 392.567 395.291 392.701ZM369.689 377.297C369.703 377.169 369.678 377.041 369.617 376.928C369.556 376.815 369.462 376.723 369.348 376.664C369.234 376.606 369.104 376.584 368.977 376.6C368.85 376.617 368.73 376.672 368.635 376.759C366.343 378.845 359.77 384.627 358.044 382.039C356.401 379.108 356.603 372.134 358.791 357.275C360.031 357.888 361.312 358.414 362.624 358.85C362.519 359.958 362.531 361.073 362.658 362.179C363.139 365.561 365.421 365.679 366.761 363.323C368.841 359.675 372.274 362.825 368.252 368.398C368.165 368.518 368.123 368.665 368.134 368.812C368.157 369.149 368.346 369.253 369.436 370.377C371.772 372.78 374.185 375.17 376.592 377.445C380.422 382.063 386.197 388.982 391.134 391.291C385.824 395.667 378.009 395.778 367.363 391.628C370.042 389.114 369.288 381.312 369.689 377.297ZM259.542 390.82C258.28 388.33 257.486 384.314 260.215 383.497C262.457 382.823 266.472 384.005 270.39 388.124C270.507 388.237 270.663 388.299 270.826 388.3C270.989 388.3 271.145 388.237 271.263 388.125C271.381 388.013 271.451 387.86 271.459 387.697C271.467 387.535 271.412 387.375 271.305 387.253C270.018 385.623 268.371 384.313 266.493 383.427C264.615 382.54 262.557 382.101 260.481 382.144C260.188 381.163 260.188 380.118 260.481 379.138C260.746 378.753 261.107 378.444 261.529 378.244C261.951 378.043 262.418 377.956 262.884 377.994C264.905 378.104 266.88 378.637 268.682 379.56C270.483 380.482 272.071 381.773 273.341 383.348C273.397 383.411 273.464 383.461 273.539 383.497C273.614 383.533 273.695 383.554 273.778 383.559C273.861 383.564 273.945 383.552 274.023 383.525C274.102 383.497 274.174 383.454 274.236 383.399C274.299 383.343 274.349 383.276 274.385 383.201C274.421 383.126 274.442 383.045 274.447 382.962C274.452 382.879 274.44 382.795 274.413 382.717C274.385 382.638 274.342 382.566 274.287 382.504C271.593 379.241 267.725 377.168 263.517 376.732C263.498 376.247 263.654 375.773 263.956 375.394C264.258 375.015 264.687 374.758 265.163 374.668C268.027 374.331 270.912 375.109 273.217 376.843C274.489 377.703 275.647 378.721 276.663 379.872C276.775 379.997 276.931 380.073 277.099 380.083C277.267 380.093 277.431 380.035 277.557 379.924C277.682 379.812 277.758 379.655 277.768 379.488C277.778 379.32 277.72 379.156 277.609 379.03C276.557 377.845 275.363 376.794 274.055 375.9C270.885 370.623 269.235 364.572 269.286 358.416C273.412 366.005 277.923 373.379 282.802 380.508C284.047 382.864 285.068 385.332 285.851 387.879C285.902 388.033 286.01 388.162 286.154 388.239C286.297 388.315 286.464 388.334 286.621 388.291C286.777 388.247 286.911 388.145 286.995 388.006C287.078 387.867 287.105 387.701 287.07 387.542C286.282 384.96 285.253 382.457 283.997 380.067C284.293 377.236 284.895 375.742 285.417 375.416C286.602 376.809 289.705 387.532 292.949 401.462C284.934 402.651 277.309 405.701 270.686 410.368C270.172 405.531 268.884 400.808 266.872 396.38C265.738 393.653 264.253 391.085 262.457 388.74C261.737 388.205 261.006 389.235 261.636 389.693C263.013 391.603 264.203 393.642 265.19 395.781C263.956 395.391 262.816 394.749 261.844 393.895C260.872 393.041 260.088 391.994 259.542 390.82ZM326.74 469.111C317.269 478.023 300.986 474.833 293.723 464.308C283.269 448.505 274.803 431.473 268.515 413.599C276.548 406.784 286.63 402.852 297.156 402.428C300.059 410.791 303.809 418.836 308.35 426.435C308.35 442.977 308.185 442.297 308.63 442.654L308.741 442.715L308.852 442.748C308.974 442.775 309.102 442.765 309.219 442.718C309.335 442.671 309.435 442.59 309.505 442.486C335.154 406.235 338.725 399.8 351.376 396.067C354.129 406.413 359.639 431.07 356.499 437.128C356.44 437.194 356.397 437.272 356.371 437.356C355.698 438.447 354.769 438.861 352.958 437.935C351.851 433.008 351.117 429.521 351.094 429.424C351.059 429.259 350.96 429.116 350.82 429.024C350.679 428.933 350.507 428.901 350.343 428.936C350.179 428.971 350.035 429.069 349.944 429.21C349.852 429.351 349.82 429.522 349.855 429.686C349.946 430.13 350.666 433.526 351.723 438.238C344.732 449.542 336.337 459.916 326.74 469.111ZM362.493 472.083C362.503 472.014 362.503 471.943 362.493 471.874C362.278 470.679 360.655 471.797 353.312 439.457C353.874 439.706 354.497 439.788 355.105 439.691C355.713 439.594 356.28 439.323 356.738 438.911L359.262 447.261C359.311 447.422 359.421 447.557 359.569 447.636C359.717 447.715 359.891 447.733 360.051 447.684C360.212 447.635 360.347 447.525 360.426 447.377C360.505 447.229 360.522 447.055 360.474 446.895L357.657 437.572C361.332 429.616 354.096 401.328 352.608 395.717C354.725 395.135 357.159 394.539 359.582 393.957C361.895 400.424 363.608 407.09 364.698 413.871C364.756 413.93 364.825 413.977 364.901 414.01C364.977 414.042 365.059 414.059 365.142 414.06C365.478 414.06 400.878 413.124 401.214 413.05C401.374 413.009 401.511 412.906 401.595 412.764C402.386 411.219 397.304 394.792 396.772 393.115C399.454 393.943 402.031 395.082 404.449 396.508C404.903 397.023 408.151 401.062 410.103 412.703C411.014 418.331 411.289 424.044 410.921 429.733C410.692 433.499 410.248 444.623 410.349 445.094C410.349 446.37 410.349 465.51 411.604 466.371L411.682 466.415C425.423 472.615 433.154 486.703 439.31 499.415C447.327 515.96 467.45 534.529 467.652 534.717C467.988 534.973 466.433 534.492 542.224 553.114C540.895 553.693 539.677 554.501 538.626 555.5C532.11 561.427 527.085 574.748 526.638 585.79L522.229 584.528C522.07 584.493 521.904 584.519 521.765 584.603C521.625 584.686 521.523 584.82 521.48 584.977C521.437 585.134 521.455 585.301 521.532 585.444C521.609 585.588 521.738 585.696 521.892 585.747L526.604 587.093C526.329 591.287 527.367 595.463 529.572 599.041L463.943 580.887C458.946 579.502 454.309 577.051 450.349 573.704L411.645 540.933L412.082 526.623C415.717 529.77 415.572 529.733 415.909 529.733C416.038 529.731 416.163 529.691 416.268 529.617C416.374 529.543 416.454 529.439 416.499 529.318C416.544 529.197 416.551 529.066 416.52 528.941C416.488 528.816 416.42 528.704 416.323 528.619L412.129 524.99C412.405 515.994 412.614 512.804 412.506 511.646C412.415 510.636 411.399 510.828 411.274 511.521C410.763 517.801 402.722 532.9 402.204 533.869C401.978 534.205 387.806 654.695 380.327 712.213C365.496 715.985 349.842 714.851 335.709 708.982C339.866 668.581 352.046 539.715 362.486 472.083H362.493ZM299.32 757.326C307.96 750.661 317.358 745.043 327.319 740.589C331.248 738.835 334.653 736.088 337.198 732.619C339.743 729.149 341.34 725.077 341.832 720.802L342.754 712.906C352.587 715.755 362.923 716.432 373.044 714.889C370.846 736.227 370.493 735.19 371.227 737.398C373.547 744.283 374.695 751.508 374.623 758.773C364.378 758.773 315.388 759.079 299.943 759.093C299.742 759.084 299.548 759.015 299.386 758.895C299.224 758.775 299.102 758.61 299.035 758.42C298.968 758.23 298.959 758.024 299.01 757.829C299.061 757.634 299.169 757.459 299.32 757.326Z" fill="#001344"/>
<path d="M354.106 604.718L355.146 594.81C355.163 594.643 355.114 594.476 355.008 594.346C354.902 594.215 354.749 594.132 354.582 594.115C354.415 594.098 354.248 594.147 354.118 594.253C353.987 594.359 353.904 594.512 353.887 594.679L352.847 604.587C352.83 604.754 352.879 604.921 352.985 605.051C353.091 605.182 353.244 605.265 353.411 605.282C353.578 605.3 353.745 605.25 353.875 605.144C354.005 605.038 354.088 604.885 354.106 604.718Z" fill="#001344"/>
<path d="M345.793 683.993L346.833 674.084C346.85 673.917 346.801 673.75 346.695 673.62C346.642 673.555 346.578 673.502 346.505 673.462C346.432 673.423 346.352 673.398 346.269 673.389C346.102 673.372 345.935 673.421 345.805 673.527C345.674 673.633 345.591 673.786 345.574 673.953L344.534 683.861C344.517 684.028 344.566 684.195 344.672 684.326C344.778 684.456 344.931 684.539 345.098 684.556C345.265 684.574 345.432 684.524 345.562 684.418C345.692 684.313 345.775 684.159 345.793 683.993Z" fill="#001344"/>
<path d="M348.566 657.566L349.603 647.657C349.62 647.49 349.57 647.323 349.465 647.193C349.359 647.063 349.206 646.98 349.039 646.962C348.872 646.945 348.705 646.994 348.575 647.1C348.444 647.206 348.361 647.359 348.344 647.526L347.304 657.434C347.299 657.595 347.355 657.752 347.461 657.873C347.566 657.994 347.714 658.07 347.874 658.087C348.034 658.104 348.194 658.059 348.323 657.962C348.451 657.866 348.538 657.724 348.566 657.566Z" fill="#001344"/>
<path d="M343.114 709.261L344.063 700.511C344.08 700.344 344.031 700.177 343.925 700.046C343.819 699.916 343.666 699.833 343.499 699.816C343.332 699.798 343.165 699.848 343.035 699.954C342.905 700.059 342.822 700.212 342.804 700.379L341.852 709.13C341.847 709.291 341.903 709.447 342.008 709.569C342.114 709.69 342.262 709.766 342.422 709.783C342.582 709.799 342.742 709.755 342.87 709.658C342.999 709.561 343.086 709.42 343.114 709.261Z" fill="#001344"/>
<path d="M351.336 631.152L352.376 621.244C352.393 621.077 352.344 620.91 352.238 620.779C352.132 620.649 351.979 620.566 351.812 620.549C351.645 620.531 351.478 620.581 351.348 620.687C351.218 620.792 351.135 620.945 351.117 621.112L350.074 631.021C350.069 631.181 350.125 631.338 350.23 631.459C350.336 631.58 350.484 631.657 350.644 631.674C350.804 631.69 350.964 631.646 351.092 631.549C351.221 631.452 351.308 631.31 351.336 631.152Z" fill="#001344"/>
<path d="M365.189 499.021L366.229 489.123C366.246 488.956 366.197 488.789 366.091 488.659C366.038 488.594 365.974 488.541 365.901 488.501C365.828 488.461 365.748 488.437 365.665 488.428C365.498 488.411 365.331 488.46 365.201 488.566C365.07 488.672 364.987 488.825 364.97 488.992L363.93 498.883C363.912 499.05 363.961 499.218 364.066 499.348C364.171 499.479 364.323 499.563 364.49 499.582C364.657 499.6 364.825 499.551 364.956 499.446C365.087 499.341 365.17 499.188 365.189 499.021Z" fill="#001344"/>
<path d="M366.7 472.467C366.682 472.634 366.732 472.801 366.838 472.931C366.944 473.061 367.097 473.144 367.264 473.162C367.431 473.179 367.598 473.13 367.728 473.024C367.858 472.918 367.941 472.765 367.959 472.598C368.07 471.521 368.315 472.898 365.266 462.791C365.217 462.63 365.107 462.495 364.959 462.416C364.811 462.337 364.638 462.32 364.477 462.368C364.316 462.417 364.181 462.527 364.102 462.675C364.023 462.823 364.006 462.997 364.054 463.157C367.057 473.029 366.764 471.864 366.7 472.467Z" fill="#001344"/>
<path d="M359.649 551.868L360.686 541.963C360.694 541.881 360.687 541.797 360.663 541.717C360.64 541.638 360.601 541.563 360.549 541.498C360.497 541.434 360.432 541.38 360.359 541.34C360.286 541.3 360.206 541.275 360.124 541.267C360.041 541.258 359.957 541.265 359.878 541.289C359.798 541.312 359.723 541.351 359.659 541.403C359.594 541.455 359.54 541.52 359.501 541.593C359.461 541.666 359.436 541.746 359.427 541.829L358.377 551.724C358.367 551.807 358.374 551.892 358.398 551.972C358.421 552.053 358.46 552.129 358.512 552.194C358.564 552.26 358.629 552.315 358.703 552.356C358.776 552.397 358.857 552.422 358.941 552.432C359.024 552.441 359.109 552.434 359.189 552.411C359.27 552.388 359.346 552.349 359.412 552.297C359.477 552.244 359.532 552.18 359.573 552.106C359.614 552.033 359.639 551.952 359.649 551.868Z" fill="#001344"/>
<path d="M356.876 578.312L357.916 568.403C357.933 568.237 357.883 568.07 357.778 567.939C357.672 567.809 357.519 567.726 357.352 567.708C357.185 567.691 357.018 567.741 356.888 567.846C356.757 567.952 356.674 568.105 356.657 568.272L355.617 578.181C355.6 578.348 355.649 578.515 355.755 578.645C355.861 578.775 356.014 578.858 356.181 578.876C356.348 578.893 356.515 578.843 356.645 578.738C356.775 578.632 356.858 578.479 356.876 578.312Z" fill="#001344"/>
<path d="M362.415 525.445L363.455 515.537C363.461 515.376 363.405 515.219 363.299 515.098C363.193 514.977 363.045 514.9 362.885 514.884C362.726 514.867 362.565 514.912 362.437 515.008C362.308 515.105 362.221 515.247 362.193 515.405L361.157 525.314C361.139 525.481 361.189 525.648 361.295 525.778C361.4 525.908 361.554 525.991 361.72 526.009C361.887 526.026 362.054 525.977 362.185 525.871C362.315 525.765 362.398 525.612 362.415 525.445Z" fill="#001344"/>
<path d="M435.598 546.985C435.725 547.095 435.89 547.149 436.058 547.137C436.225 547.125 436.381 547.046 436.491 546.919C436.601 546.792 436.656 546.626 436.643 546.459C436.631 546.291 436.553 546.135 436.425 546.026L428.89 539.51C428.762 539.407 428.6 539.358 428.437 539.373C428.274 539.388 428.123 539.465 428.016 539.589C427.909 539.713 427.854 539.873 427.862 540.037C427.871 540.2 427.942 540.354 428.062 540.466L435.598 546.985Z" fill="#001344"/>
<path d="M455.693 564.365C455.821 564.467 455.983 564.516 456.146 564.501C456.309 564.487 456.46 564.409 456.568 564.285C456.675 564.162 456.73 564.001 456.721 563.838C456.713 563.675 456.641 563.521 456.521 563.409L448.986 556.89C448.859 556.78 448.693 556.725 448.525 556.738C448.358 556.75 448.202 556.828 448.092 556.955C447.982 557.083 447.928 557.248 447.94 557.416C447.952 557.583 448.031 557.739 448.158 557.849L455.693 564.365Z" fill="#001344"/>
<path d="M496.323 578.443C504.468 580.782 505.747 581.217 506.084 581.217C506.236 581.215 506.382 581.158 506.496 581.058C506.61 580.958 506.684 580.82 506.706 580.669C506.727 580.518 506.693 580.365 506.611 580.237C506.529 580.109 506.404 580.015 506.259 579.971L496.68 577.228C496.6 577.205 496.517 577.197 496.434 577.206C496.351 577.215 496.271 577.24 496.198 577.28C496.125 577.32 496.061 577.374 496.009 577.439C495.957 577.503 495.918 577.578 495.894 577.657C495.871 577.737 495.863 577.821 495.872 577.903C495.881 577.986 495.906 578.066 495.946 578.139C495.986 578.212 496.04 578.277 496.104 578.329C496.169 578.381 496.244 578.42 496.323 578.443Z" fill="#001344"/>
<path d="M470.788 571.126C478.93 573.482 480.212 573.896 480.549 573.896C480.702 573.897 480.85 573.843 480.966 573.742C481.082 573.642 481.158 573.504 481.179 573.352C481.2 573.2 481.166 573.046 481.082 572.918C480.999 572.789 480.871 572.696 480.724 572.654L471.125 569.898C471.044 569.876 470.96 569.87 470.877 569.88C470.794 569.891 470.714 569.917 470.641 569.959C470.494 570.042 470.387 570.181 470.342 570.344C470.298 570.507 470.32 570.681 470.403 570.827C470.487 570.974 470.625 571.082 470.788 571.126Z" fill="#001344"/>
</g>
<defs>
<clipPath id="clip0_112_579">
<rect width="843" height="925" fill="white"/>
</clipPath>
</defs>
</svg>
