<?xml version="1.0" standalone="no"?>
<!DOCTYPE svg PUBLIC "-//W3C//DTD SVG 20010904//EN"
 "http://www.w3.org/TR/2001/REC-SVG-20010904/DTD/svg10.dtd">
<svg version="1.0" xmlns="http://www.w3.org/2000/svg"
 width="125.000000pt" height="125.000000pt" viewBox="0 0 125.000000 125.000000"
 preserveAspectRatio="xMidYMid meet">
<metadata>
Created by potrace 1.14, written by Peter Selinger 2001-2017
</metadata>
<g transform="translate(0.000000,125.000000) scale(0.100000,-0.100000)"
fill="#000000" stroke="none">
<path d="M602 1215 c-6 -14 -20 -25 -29 -25 -10 0 -25 -5 -33 -10 -13 -8 -11
-12 8 -26 18 -12 22 -22 17 -44 -7 -34 5 -44 31 -26 16 12 23 12 46 0 28 -15
42 -6 32 20 -3 8 3 28 15 44 23 32 19 42 -16 42 -16 0 -27 8 -33 25 -5 14 -13
25 -18 25 -5 0 -14 -11 -20 -25z"/>
<path d="M276 1075 c-4 -14 -18 -31 -31 -37 -31 -14 -31 -22 0 -42 18 -12 24
-23 20 -36 -8 -26 10 -34 39 -15 15 10 33 14 50 9 28 -7 34 7 17 35 -6 10 -4
25 5 43 15 29 12 32 -27 29 -8 -1 -24 8 -34 19 -24 26 -31 25 -39 -5z"/>
<path d="M934 1079 c-12 -13 -25 -18 -40 -15 -30 8 -38 -8 -20 -36 10 -16 12
-28 6 -38 -19 -30 -12 -42 21 -35 22 5 36 2 50 -11 22 -20 29 -16 32 16 1 12
12 29 24 37 29 19 29 27 -2 41 -13 6 -27 23 -31 37 -8 30 -15 31 -40 4z"/>
<path d="M344 728 c-9 -14 -9 -706 0 -715 7 -7 155 -8 162 0 3 3 6 63 6 134 1
70 3 133 5 139 6 16 210 17 220 1 4 -7 8 -70 8 -141 0 -113 2 -130 18 -135 20
-7 121 -5 141 2 11 5 14 74 12 364 l-1 358 -79 3 c-48 2 -82 -1 -86 -8 -3 -6
-6 -64 -5 -130 1 -66 -2 -125 -5 -130 -4 -7 -48 -10 -116 -8 l-109 3 -1 126
c0 69 -4 131 -8 137 -10 16 -152 16 -162 0z"/>
</g>
</svg>
